<?xml version="1.0" encoding="UTF-8" standalone="no"?>
<!-- Created with Inkscape (http://www.inkscape.org/) -->

<svg
   width="210mm"
   height="297mm"
   viewBox="0 0 210 297"
   version="1.1"
   id="svg5"
   inkscape:version="1.1.1 (3bf5ae0d25, 2021-09-20)"
   sodipodi:docname="dylancyclone.svg"
   xmlns:inkscape="http://www.inkscape.org/namespaces/inkscape"
   xmlns:sodipodi="http://sodipodi.sourceforge.net/DTD/sodipodi-0.dtd"
   xmlns="http://www.w3.org/2000/svg"
   xmlns:svg="http://www.w3.org/2000/svg">
  <sodipodi:namedview
     id="namedview7"
     pagecolor="#505050"
     bordercolor="#eeeeee"
     borderopacity="1"
     inkscape:pageshadow="0"
     inkscape:pageopacity="0"
     inkscape:pagecheckerboard="0"
     inkscape:document-units="mm"
     showgrid="false"
     inkscape:zoom="0.19442866"
     inkscape:cx="308.59648"
     inkscape:cy="-882.0716"
     inkscape:window-width="2560"
     inkscape:window-height="1377"
     inkscape:window-x="-8"
     inkscape:window-y="-8"
     inkscape:window-maximized="1"
     inkscape:current-layer="layer1" />
  <defs
     id="defs2" />
  <g
     inkscape:label="Layer 1"
     inkscape:groupmode="layer"
     id="layer1">
    <path
       style="fill:#000000;stroke-width:0.352778"
       d="m 82.67085,465.38986 c -39.984572,-2.18577 -74.7997856,-15.64749 -97.788019,-37.8109 -15.225641,-14.67936 -24.799889,-32.54011 -28.299585,-52.7928 -1.95513,-11.31461 -1.753588,-28.77728 0.524686,-45.45958 4.349715,-31.84991 16.439726,-67.33614 34.3174799,-100.72765 1.4947899,-2.79185 2.6605088,-5.13338 2.5905177,-5.20333 -0.069991,-0.07 -1.939678,0.85132 -4.1549106,2.04734 -5.793211,3.12787 -19.301424,9.67701 -26.046782,12.62825 -34.071911,14.90701 -65.645277,22.79071 -96.022577,23.97633 -12.74318,0.49734 -21.83963,-0.26582 -31.64406,-2.65483 -34.47754,-8.40102 -60.98942,-34.97834 -74.78989,-74.97435 -9.14486,-26.50334 -11.83153,-56.93586 -7.62643,-86.386349 8.21129,-57.507956 40.70007,-98.568905 85.25336,-107.7475584 7.47423,-1.5398006 13.0194,-2.0316786 22.67094,-2.0109986 26.97702,0.0578 55.53509,5.8674947 86.077777,17.5111687 12.843157,4.8961533 28.275067,11.8765783 40.021826,18.1033593 3.3677573,1.785186 6.1827474,3.186208 6.2555607,3.113384 0.072849,-0.07283 -1.0905066,-2.416662 -2.585226,-5.20852 C -19.309439,1.7418964 -29.577777,-23.301971 -35.462251,-43.784676 c -9.039542,-31.464906 -11.73494,-63.977664 -7.062963,-85.195834 9.73589,-44.21641 50.4480309,-76.12144 107.557176,-84.28975 9.996099,-1.42974 15.036376,-1.75666 27.163888,-1.76188 21.72575,-0.009 38.77324,2.60145 57.32639,8.77943 21.04203,7.00676 37.52662,16.75467 51.01494,30.16689 8.56442,8.51611 13.87101,15.82782 18.82542,25.93864 7.69585,15.7054 10.52604,30.55757 9.69673,50.885648 -1.47856,36.241983 -12.01614,73.218185 -32.49414,114.021324 -2.67328,5.326609 -4.81641,9.728852 -4.76247,9.782764 0.0539,0.05391 3.50097,-1.613708 7.66015,-3.705814 40.42868,-20.33599544 79.61933,-31.205417 117.13139,-32.486054 12.72532,-0.434431 22.59368,0.280473 31.51243,2.2828959 37.07254,8.3234424 65.03652,35.7751341 78.68109,77.2395971 13.81435,41.980539 10.53955,92.795629 -8.48089,131.597979 -15.2406,31.09129 -39.48306,52.19714 -68.49508,59.63281 -19.2653,4.93766 -45.71012,3.92819 -75.38928,-2.87771 -24.26373,-5.56408 -53.24718,-16.65481 -78.12083,-29.89347 -3.18142,-1.6933 -5.84278,-3.02038 -5.91408,-2.94905 -0.0713,0.0713 1.3353,2.89225 3.12583,6.26879 12.82319,24.1819 23.48244,51.76923 29.20675,75.59033 6.94849,28.91554 8.38637,57.01256 3.8742,75.70294 -10.17785,42.15843 -48.42305,72.81421 -102.29577,81.99607 -12.82683,2.18616 -29.009201,3.13778 -41.62778,2.44799 z m 15.975929,-41.74282 c 19.736431,-0.95842 36.510771,-4.96827 51.581011,-12.33028 17.60954,-8.60249 29.4113,-20.82 34.34655,-35.55648 1.86538,-5.56997 2.52758,-9.52916 2.75982,-16.50037 0.7717,-23.16293 -5.81981,-53.62973 -17.86178,-82.55942 -14.02898,-33.70333 -35.77639,-69.3337 -63.40411,-103.87961 -6.156888,-7.69863 -13.521759,-16.40417 -13.877853,-16.40417 -0.357822,0 -7.766826,8.75327 -13.819539,16.32688 -32.451956,40.60617 -56.647748,82.47782 -69.6434456,120.52032 -5.5570964,16.26739 -8.91550535,30.67222 -10.7807119,46.24062 -0.5971117,4.98412 -0.7669389,8.44522 -0.7877528,16.05524 -0.024342,8.85839 0.043745,10.02326 0.7818261,13.40555 2.31743239,10.61946 6.6924058,18.82634 14.1691072,26.57938 6.152515,6.37988 12.322845,10.88206 20.898413,15.24864 14.918372,7.59615 34.754924,12.33699 54.248647,12.96508 1.649236,0.0532 3.316111,0.12608 3.704167,0.1621 0.388055,0.036 3.846583,-0.0871 7.685651,-0.27348 z M -122.99858,219.57621 c 16.73454,-1.93124 32.677694,-5.74548 50.623605,-12.11118 32.556695,-11.54832 68.5245044,-31.71172 103.888005,-58.2392 10.514259,-7.88712 29.461988,-23.33787 29.461988,-24.02452 0,-0.76644 -18.517446,-15.77894 -30.691665,-24.88244 -49.598507,-37.0881 -98.632887,-60.562099 -141.816663,-67.891244 -10.28308,-1.745248 -16.38539,-2.273441 -26.45833,-2.290145 -8.18504,-0.01358 -9.59852,0.0712 -13.13314,0.787689 -11.2638,2.283259 -20.56479,7.34429 -28.62795,15.57764 -14.2464,14.547067 -23.80915,38.73705 -26.15805,66.16946 -0.50754,5.92734 -0.5087,19.58111 -0.004,25.22361 1.60891,17.92252 5.99789,33.98774 12.89568,47.20287 4.37353,8.37903 8.66563,14.20537 14.87823,20.19649 8.84124,8.52611 18.22562,13.03309 30.7988,14.79155 3.29043,0.4602 18.73737,0.1362 24.34167,-0.51058 z m 459.14025,-0.18408 c 13.40591,-2.86184 23.89674,-9.392 33.51011,-20.85894 15.50921,-18.49945 24.51414,-48.68866 23.71238,-79.49639 C 392.52713,86.873006 381.93833,59.654344 364.2406,44.174385 356.42064,37.33437 347.30448,32.938113 336.76676,30.925173 c -3.68173,-0.703287 -5.2535,-0.792938 -13.85425,-0.790208 -9.75018,0.0032 -14.49649,0.323875 -23.98889,1.621325 -48.3913,6.614251 -102.97597,33.02605 -155.22222,75.1071 -8.62749,6.94892 -20.6375,17.36669 -20.6375,17.9015 0,0.89073 17.8392,15.43357 31.04445,25.308 48.4366,36.21927 96.64421,59.59693 138.89319,67.35455 12.06831,2.21594 20.81254,3.00482 31.49847,2.84166 6.60788,-0.10089 8.76867,-0.26366 11.64166,-0.87697 z M 96.817521,88.859769 C 116.33544,65.834944 134.91861,39.552315 148.81284,15.321428 c 21.50663,-37.506547 34.01652,-72.358839 37.74027,-105.143604 0.78281,-6.892226 1.0863,-19.615384 0.56797,-23.812504 -1.59812,-12.9402 -6.05758,-22.41202 -14.83928,-31.51827 -9.23036,-9.57145 -19.89455,-15.97418 -35.43808,-21.27685 -36.29522,-12.38208 -83.430034,-7.87221 -112.028422,10.7189 -15.0045556,9.7541 -23.7169316,21.93197 -26.8901675,37.58615 -0.7164564,3.53461 -0.8012642,4.94808 -0.7876822,13.13313 0.027517,16.685817 2.53731875,32.457468 8.2544351,51.874392 C 18.274551,-9.3640737 47.589395,41.42063 86.697456,87.735568 c 2.345019,2.777176 4.501797,5.350475 4.792838,5.718444 0.291042,0.367968 0.633095,0.635733 0.760095,0.595033 0.127036,-0.0407 2.182248,-2.375873 4.567132,-5.189276 z"
       id="path973" />
  </g>
</svg>
