M48
; DRILL file {KiCad (5.99.0-10613-g4d227d2d2b)} date Mon Jan 31 15:59:11 2022
; FORMAT={-:-/ absolute / inch / decimal}
; #@! TF.CreationDate,2022-01-31T15:59:11-07:00
; #@! TF.GenerationSoftware,Kicad,Pcbnew,(5.99.0-10613-g4d227d2d2b)
; #@! TF.FileFunction,Plated,1,2,PTH
FMAT,2
INCH
; #@! TA.AperFunction,Plated,PTH,ViaDrill
T1C0.0118
; #@! TA.AperFunction,Plated,PTH,ViaDrill
T2C0.0157
; #@! TA.AperFunction,Plated,PTH,ComponentDrill
T3C0.0236
; #@! TA.AperFunction,Plated,PTH,ComponentDrill
T4C0.0315
; #@! TA.AperFunction,Plated,PTH,ComponentDrill
T5C0.0350
; #@! TA.AperFunction,Plated,PTH,ComponentDrill
T6C0.0360
; #@! TA.AperFunction,Plated,PTH,ComponentDrill
T7C0.0390
; #@! TA.AperFunction,Plated,PTH,ComponentDrill
T8C0.0402
; #@! TA.AperFunction,Plated,PTH,ComponentDrill
T9C0.0524
; #@! TA.AperFunction,Plated,PTH,ComponentDrill
T10C0.0618
; #@! TA.AperFunction,Plated,PTH,ComponentDrill
T11C0.0910
%
G90
G05
T1
X1.4213Y-1.6752
X1.437Y-1.4409
X1.4646Y-1.1673
X1.5335Y-2.1516
X1.5492Y-1.8465
X1.5787Y-1.9154
X1.59Y-1.3704
X1.6043Y-1.4528
X1.6134Y-1.2751
X1.6142Y-1.6575
X1.62Y-1.33
X1.622Y-1.2264
X1.64Y-1.4195
X1.685Y-1.4213
X1.71Y-1.2251
X1.72Y-1.4213
X1.7756Y-1.8878
X1.78Y-1.39
X1.7942Y-1.6572
X1.7985Y-1.3289
X1.8248Y-1.2362
X1.94Y-1.4551
X1.9665Y-1.2283
X1.9685Y-1.4213
X1.97Y-1.3351
X2.0276Y-1.4941
X2.0709Y-1.6969
X2.1Y-1.2751
X2.1Y-1.3651
X2.1299Y-1.0394
X2.32Y-1.3351
X2.7323Y-2.2106
X2.7334Y-1.663
X2.7334Y-1.663
X2.7334Y-1.6966
X2.7334Y-1.6966
X2.7371Y-1.4055
X2.7372Y-1.7582
X2.7372Y-1.7582
X2.7372Y-1.7919
X2.7372Y-1.7919
X2.7376Y-1.5728
X2.7376Y-1.5728
X2.7376Y-1.6065
X2.7376Y-1.6065
X2.7391Y-1.4733
X2.7391Y-1.4733
X2.7391Y-1.507
X2.7391Y-1.507
X2.7636Y-1.7096
X2.7636Y-1.7096
X2.7636Y-1.7432
X2.7636Y-1.7432
X2.7639Y-1.8031
X2.7639Y-1.8031
X2.7639Y-1.8368
X2.7639Y-1.8368
X2.7643Y-1.6174
X2.7643Y-1.6174
X2.7643Y-1.6511
X2.7643Y-1.6511
X2.7645Y-1.5274
X2.7645Y-1.561
X2.8474Y-2.1432
X2.8474Y-2.1432
X2.8474Y-2.1718
X2.8474Y-2.1718
X2.8552Y-1.4055
X2.8642Y-1.0472
X2.8642Y-1.1122
X2.8642Y-1.1772
X2.8681Y-0.8543
X2.871Y-1.8577
X2.8992Y-1.8677
X2.9278Y-1.8777
X2.93Y-1.4441
X2.9331Y-1.2008
X2.9554Y-1.8877
X2.9596Y-1.4441
X2.9961Y-1.2028
X3.0591Y-1.2028
X3.122Y-1.2028
X3.185Y-1.2028
X3.25Y-1.2028
X3.315Y-1.2028
X3.3799Y-1.2028
X3.4429Y-1.2028
X3.5059Y-1.2028
X3.5709Y-1.2028
X3.6358Y-1.2028
X3.7008Y-1.2028
X3.7657Y-1.2028
X3.8307Y-1.2028
X3.8957Y-1.2028
X3.935Y-2.2579
X3.9469Y-1.0512
X3.9469Y-1.1142
X3.9469Y-1.1752
X3.9488Y-0.8445
X3.9582Y-2.2411
X3.9744Y-1.4685
X3.9753Y-1.5236
X4.0118Y-2.2657
X4.0413Y-1.3602
X4.0422Y-1.5236
X4.0709Y-2.0748
X4.0772Y-1.67
X4.0945Y-1.2303
X4.0945Y-1.3602
X4.1378Y-2.2638
X4.1722Y-1.437
X4.1997Y-1.3031
X4.1997Y-1.3287
X4.2244Y-1.0531
X4.2273Y-1.3031
X4.2273Y-1.3287
X4.43Y-1.59
X4.4887Y-1.6857
X4.51Y-1.6617
X4.563Y-1.3504
X4.6417Y-1.3504
X4.71Y-1.53
X4.82Y-1.53
X4.85Y-1.53
X4.9003Y-3.1806
X4.9003Y-3.1806
X4.9003Y-3.4076
X4.9339Y-3.1806
X4.9339Y-3.1806
X4.9339Y-3.4076
X4.9625Y-3.2343
X4.9625Y-3.2343
X4.9625Y-3.2343
X4.9625Y-3.4065
X4.9961Y-3.2343
X4.9961Y-3.2343
X4.9961Y-3.2343
X4.9961Y-3.4065
X5.0345Y-3.7293
X5.035Y-3.19
X5.27Y-1.41
X5.31Y-1.3504
X5.3504Y-2.5492
X5.4882Y-1.437
X5.4994Y-3.7821
X5.6024Y-1.435
X5.6024Y-1.4606
X5.6299Y-1.435
X5.6299Y-1.4606
X5.6358Y-3.7323
X5.8681Y-3.5787
X6.0098Y-2.5669
X6.0177Y-3.1319
X6.1102Y-1.7103
X6.122Y-4.4272
X6.1339Y-4.687
X6.1361Y-1.6888
X6.1535Y-4.9173
X6.1561Y-1.6684
X6.181Y-1.6458
X6.1996Y-1.624
X6.2235Y-1.6005
X6.2421Y-1.5787
X6.25Y-4.5461
X6.25Y-4.5957
X6.252Y-4.802
X6.253Y-4.8516
X6.2776Y-4.6102
X6.2776Y-4.8661
X6.282Y-1.5528
X6.3033Y-1.5337
X6.3189Y-3.5512
X6.3223Y-1.5124
X6.3228Y-3.7244
X6.3425Y-1.4921
X6.3602Y-3.8504
X6.3839Y-1.437
X6.3839Y-4.6102
X6.3839Y-4.8661
X6.3858Y-1.4626
X6.3957Y-3.4114
X6.4094Y-1.435
X6.4134Y-1.4606
X6.4212Y-3.6595
X6.4311Y-3.689
X6.4341Y-3.7383
X6.4502Y-3.7619
X6.4665Y-3.579
X6.5531Y-1.6476
X6.565Y-4.2657
X6.6693Y-4.0512
X6.7008Y-3.7362
X6.8169Y-1.185
X6.8209Y-2.6516
X6.872Y-2.8701
X6.8856Y-1.6198
X6.8898Y-1.5865
X6.893Y-1.5579
X6.8967Y-1.5245
X6.9016Y-1.8031
X6.9127Y-1.5002
X6.9155Y-1.4667
X6.919Y-2.4205
X6.9388Y-1.3819
X6.9393Y-2.4408
X6.9724Y-1.3818
X6.9908Y-1.6917
X6.9921Y-1.439
X6.9921Y-1.5177
X6.9921Y-1.5551
T2
X1.6721Y-1.7359
X1.6721Y-1.7989
X1.7036Y-1.7674
X1.71Y-1.32
X1.7351Y-1.7359
X1.7351Y-1.7989
T4
X1.3268Y-1.378
X1.3268Y-1.4567
T5
X6.5041Y-4.525
X6.5041Y-4.625
X6.5041Y-4.725
X6.5041Y-4.825
X6.5041Y-4.925
X6.6041Y-4.475
X6.6041Y-4.575
X6.6041Y-4.675
X6.6041Y-4.775
X6.6041Y-4.875
T6
X5.5636Y-1.3164
X5.6636Y-1.3164
X5.7636Y-1.3164
X5.8636Y-1.3164
X6.7936Y-3.1536
X6.7936Y-3.2536
X6.7936Y-3.3536
X6.7936Y-3.4536
X6.7936Y-3.8136
X6.7936Y-3.9136
X6.7936Y-4.0136
X6.7936Y-4.1136
T7
X2.3543Y-1.9551
X2.3543Y-2.0551
T8
X6.9545Y-4.4323
X6.9545Y-4.9677
X7.0344Y-4.4323
X7.0344Y-4.9677
T9
X6.0982Y-0.9461
X6.1218Y-1.139
X6.6926Y-1.139
X6.7163Y-0.9461
T10
X6.734Y-4.39
X6.734Y-5.01
T11
X5.455Y-1.2097
X5.9723Y-1.2097
X6.9003Y-3.045
X6.9003Y-3.5623
X6.9003Y-3.705
X6.9003Y-4.2223
T3
G00X1.5449Y-0.9204
M15
G01X1.5449Y-0.8968
M16
G05
G00X1.5449Y-1.07
M15
G01X1.5449Y-1.0464
M16
G05
G00X1.8851Y-0.9204
M15
G01X1.8851Y-0.8968
M16
G05
G00X1.8851Y-1.07
M15
G01X1.8851Y-1.0464
M16
G05
T0
M30
