%TF.GenerationSoftware,KiCad,Pcbnew,(5.99.0-10613-g4d227d2d2b)*%
%TF.CreationDate,2022-01-31T15:59:13-07:00*%
%TF.ProjectId,lathrum_thesis,6c617468-7275-46d5-9f74-68657369732e,v2*%
%TF.SameCoordinates,Original*%
%TF.FileFunction,Legend,Top*%
%TF.FilePolarity,Positive*%
%FSLAX46Y46*%
G04 Gerber Fmt 4.6, Leading zero omitted, Abs format (unit mm)*
G04 Created by KiCad (PCBNEW (5.99.0-10613-g4d227d2d2b)) date 2022-01-31 15:59:13*
%MOMM*%
%LPD*%
G01*
G04 APERTURE LIST*
%ADD10C,0.152400*%
%ADD11C,0.150000*%
%ADD12C,0.254000*%
%ADD13C,0.120000*%
%ADD14C,0.015000*%
%ADD15C,0.200000*%
%ADD16C,0.100000*%
%ADD17C,0.127000*%
G04 APERTURE END LIST*
D10*
X81961828Y-56759087D02*
X81961828Y-55946287D01*
X82155352Y-55946287D01*
X82271466Y-55984992D01*
X82348876Y-56062401D01*
X82387580Y-56139811D01*
X82426285Y-56294630D01*
X82426285Y-56410744D01*
X82387580Y-56565563D01*
X82348876Y-56642972D01*
X82271466Y-56720382D01*
X82155352Y-56759087D01*
X81961828Y-56759087D01*
X82697219Y-56217220D02*
X82890742Y-56759087D01*
X83084266Y-56217220D02*
X82890742Y-56759087D01*
X82813333Y-56952611D01*
X82774628Y-56991315D01*
X82697219Y-57030020D01*
X83510019Y-56759087D02*
X83432609Y-56720382D01*
X83393904Y-56642972D01*
X83393904Y-55946287D01*
X84168000Y-56759087D02*
X84168000Y-56333334D01*
X84129295Y-56255925D01*
X84051885Y-56217220D01*
X83897066Y-56217220D01*
X83819657Y-56255925D01*
X84168000Y-56720382D02*
X84090590Y-56759087D01*
X83897066Y-56759087D01*
X83819657Y-56720382D01*
X83780952Y-56642972D01*
X83780952Y-56565563D01*
X83819657Y-56488153D01*
X83897066Y-56449449D01*
X84090590Y-56449449D01*
X84168000Y-56410744D01*
X84555047Y-56217220D02*
X84555047Y-56759087D01*
X84555047Y-56294630D02*
X84593752Y-56255925D01*
X84671161Y-56217220D01*
X84787276Y-56217220D01*
X84864685Y-56255925D01*
X84903390Y-56333334D01*
X84903390Y-56759087D01*
X86296761Y-56759087D02*
X85909714Y-56759087D01*
X85909714Y-55946287D01*
X86916038Y-56759087D02*
X86916038Y-56333334D01*
X86877333Y-56255925D01*
X86799923Y-56217220D01*
X86645104Y-56217220D01*
X86567695Y-56255925D01*
X86916038Y-56720382D02*
X86838628Y-56759087D01*
X86645104Y-56759087D01*
X86567695Y-56720382D01*
X86528990Y-56642972D01*
X86528990Y-56565563D01*
X86567695Y-56488153D01*
X86645104Y-56449449D01*
X86838628Y-56449449D01*
X86916038Y-56410744D01*
X87186971Y-56217220D02*
X87496609Y-56217220D01*
X87303085Y-55946287D02*
X87303085Y-56642972D01*
X87341790Y-56720382D01*
X87419200Y-56759087D01*
X87496609Y-56759087D01*
X87767542Y-56759087D02*
X87767542Y-55946287D01*
X88115885Y-56759087D02*
X88115885Y-56333334D01*
X88077180Y-56255925D01*
X87999771Y-56217220D01*
X87883657Y-56217220D01*
X87806247Y-56255925D01*
X87767542Y-56294630D01*
X88502933Y-56759087D02*
X88502933Y-56217220D01*
X88502933Y-56372039D02*
X88541638Y-56294630D01*
X88580342Y-56255925D01*
X88657752Y-56217220D01*
X88735161Y-56217220D01*
X89354438Y-56217220D02*
X89354438Y-56759087D01*
X89006095Y-56217220D02*
X89006095Y-56642972D01*
X89044800Y-56720382D01*
X89122209Y-56759087D01*
X89238323Y-56759087D01*
X89315733Y-56720382D01*
X89354438Y-56681677D01*
X89741485Y-56759087D02*
X89741485Y-56217220D01*
X89741485Y-56294630D02*
X89780190Y-56255925D01*
X89857600Y-56217220D01*
X89973714Y-56217220D01*
X90051123Y-56255925D01*
X90089828Y-56333334D01*
X90089828Y-56759087D01*
X90089828Y-56333334D02*
X90128533Y-56255925D01*
X90205942Y-56217220D01*
X90322057Y-56217220D01*
X90399466Y-56255925D01*
X90438171Y-56333334D01*
X90438171Y-56759087D01*
X81942476Y-57254895D02*
X82406933Y-57254895D01*
X82174704Y-58067695D02*
X82174704Y-57254895D01*
X82677866Y-58067695D02*
X82677866Y-57254895D01*
X83026209Y-58067695D02*
X83026209Y-57641942D01*
X82987504Y-57564533D01*
X82910095Y-57525828D01*
X82793980Y-57525828D01*
X82716571Y-57564533D01*
X82677866Y-57603238D01*
X83722895Y-58028990D02*
X83645485Y-58067695D01*
X83490666Y-58067695D01*
X83413257Y-58028990D01*
X83374552Y-57951580D01*
X83374552Y-57641942D01*
X83413257Y-57564533D01*
X83490666Y-57525828D01*
X83645485Y-57525828D01*
X83722895Y-57564533D01*
X83761600Y-57641942D01*
X83761600Y-57719352D01*
X83374552Y-57796761D01*
X84071238Y-58028990D02*
X84148647Y-58067695D01*
X84303466Y-58067695D01*
X84380876Y-58028990D01*
X84419580Y-57951580D01*
X84419580Y-57912876D01*
X84380876Y-57835466D01*
X84303466Y-57796761D01*
X84187352Y-57796761D01*
X84109942Y-57758057D01*
X84071238Y-57680647D01*
X84071238Y-57641942D01*
X84109942Y-57564533D01*
X84187352Y-57525828D01*
X84303466Y-57525828D01*
X84380876Y-57564533D01*
X84767923Y-58067695D02*
X84767923Y-57525828D01*
X84767923Y-57254895D02*
X84729219Y-57293600D01*
X84767923Y-57332304D01*
X84806628Y-57293600D01*
X84767923Y-57254895D01*
X84767923Y-57332304D01*
X85116266Y-58028990D02*
X85193676Y-58067695D01*
X85348495Y-58067695D01*
X85425904Y-58028990D01*
X85464609Y-57951580D01*
X85464609Y-57912876D01*
X85425904Y-57835466D01*
X85348495Y-57796761D01*
X85232380Y-57796761D01*
X85154971Y-57758057D01*
X85116266Y-57680647D01*
X85116266Y-57641942D01*
X85154971Y-57564533D01*
X85232380Y-57525828D01*
X85348495Y-57525828D01*
X85425904Y-57564533D01*
X86432228Y-58067695D02*
X86432228Y-57254895D01*
X86741866Y-57254895D01*
X86819276Y-57293600D01*
X86857980Y-57332304D01*
X86896685Y-57409714D01*
X86896685Y-57525828D01*
X86857980Y-57603238D01*
X86819276Y-57641942D01*
X86741866Y-57680647D01*
X86432228Y-57680647D01*
X87245028Y-58067695D02*
X87245028Y-57525828D01*
X87245028Y-57680647D02*
X87283733Y-57603238D01*
X87322438Y-57564533D01*
X87399847Y-57525828D01*
X87477257Y-57525828D01*
X87864304Y-58067695D02*
X87786895Y-58028990D01*
X87748190Y-57990285D01*
X87709485Y-57912876D01*
X87709485Y-57680647D01*
X87748190Y-57603238D01*
X87786895Y-57564533D01*
X87864304Y-57525828D01*
X87980419Y-57525828D01*
X88057828Y-57564533D01*
X88096533Y-57603238D01*
X88135238Y-57680647D01*
X88135238Y-57912876D01*
X88096533Y-57990285D01*
X88057828Y-58028990D01*
X87980419Y-58067695D01*
X87864304Y-58067695D01*
X88483580Y-57525828D02*
X88483580Y-58222514D01*
X88444876Y-58299923D01*
X88367466Y-58338628D01*
X88328761Y-58338628D01*
X88483580Y-57254895D02*
X88444876Y-57293600D01*
X88483580Y-57332304D01*
X88522285Y-57293600D01*
X88483580Y-57254895D01*
X88483580Y-57332304D01*
X89180266Y-58028990D02*
X89102857Y-58067695D01*
X88948038Y-58067695D01*
X88870628Y-58028990D01*
X88831923Y-57951580D01*
X88831923Y-57641942D01*
X88870628Y-57564533D01*
X88948038Y-57525828D01*
X89102857Y-57525828D01*
X89180266Y-57564533D01*
X89218971Y-57641942D01*
X89218971Y-57719352D01*
X88831923Y-57796761D01*
X89915657Y-58028990D02*
X89838247Y-58067695D01*
X89683428Y-58067695D01*
X89606019Y-58028990D01*
X89567314Y-57990285D01*
X89528609Y-57912876D01*
X89528609Y-57680647D01*
X89567314Y-57603238D01*
X89606019Y-57564533D01*
X89683428Y-57525828D01*
X89838247Y-57525828D01*
X89915657Y-57564533D01*
X90147885Y-57525828D02*
X90457523Y-57525828D01*
X90264000Y-57254895D02*
X90264000Y-57951580D01*
X90302704Y-58028990D01*
X90380114Y-58067695D01*
X90457523Y-58067695D01*
X85619428Y-58834436D02*
X85812952Y-59376303D01*
X86006476Y-58834436D01*
X86277409Y-58640912D02*
X86316114Y-58602208D01*
X86393523Y-58563503D01*
X86587047Y-58563503D01*
X86664457Y-58602208D01*
X86703161Y-58640912D01*
X86741866Y-58718322D01*
X86741866Y-58795731D01*
X86703161Y-58911846D01*
X86238704Y-59376303D01*
X86741866Y-59376303D01*
D11*
%TO.C,C4*%
X46205333Y-54849142D02*
X46157714Y-54896761D01*
X46014857Y-54944380D01*
X45919619Y-54944380D01*
X45776761Y-54896761D01*
X45681523Y-54801523D01*
X45633904Y-54706285D01*
X45586285Y-54515809D01*
X45586285Y-54372952D01*
X45633904Y-54182476D01*
X45681523Y-54087238D01*
X45776761Y-53992000D01*
X45919619Y-53944380D01*
X46014857Y-53944380D01*
X46157714Y-53992000D01*
X46205333Y-54039619D01*
X47062476Y-54277714D02*
X47062476Y-54944380D01*
X46824380Y-53896761D02*
X46586285Y-54611047D01*
X47205333Y-54611047D01*
%TO.C,C13*%
X155657142Y-84407142D02*
X155609523Y-84454761D01*
X155466666Y-84502380D01*
X155371428Y-84502380D01*
X155228571Y-84454761D01*
X155133333Y-84359523D01*
X155085714Y-84264285D01*
X155038095Y-84073809D01*
X155038095Y-83930952D01*
X155085714Y-83740476D01*
X155133333Y-83645238D01*
X155228571Y-83550000D01*
X155371428Y-83502380D01*
X155466666Y-83502380D01*
X155609523Y-83550000D01*
X155657142Y-83597619D01*
X156609523Y-84502380D02*
X156038095Y-84502380D01*
X156323809Y-84502380D02*
X156323809Y-83502380D01*
X156228571Y-83645238D01*
X156133333Y-83740476D01*
X156038095Y-83788095D01*
X156942857Y-83502380D02*
X157561904Y-83502380D01*
X157228571Y-83883333D01*
X157371428Y-83883333D01*
X157466666Y-83930952D01*
X157514285Y-83978571D01*
X157561904Y-84073809D01*
X157561904Y-84311904D01*
X157514285Y-84407142D01*
X157466666Y-84454761D01*
X157371428Y-84502380D01*
X157085714Y-84502380D01*
X156990476Y-84454761D01*
X156942857Y-84407142D01*
%TO.C,R20*%
X154657142Y-114452380D02*
X154323809Y-113976190D01*
X154085714Y-114452380D02*
X154085714Y-113452380D01*
X154466666Y-113452380D01*
X154561904Y-113500000D01*
X154609523Y-113547619D01*
X154657142Y-113642857D01*
X154657142Y-113785714D01*
X154609523Y-113880952D01*
X154561904Y-113928571D01*
X154466666Y-113976190D01*
X154085714Y-113976190D01*
X155038095Y-113547619D02*
X155085714Y-113500000D01*
X155180952Y-113452380D01*
X155419047Y-113452380D01*
X155514285Y-113500000D01*
X155561904Y-113547619D01*
X155609523Y-113642857D01*
X155609523Y-113738095D01*
X155561904Y-113880952D01*
X154990476Y-114452380D01*
X155609523Y-114452380D01*
X156228571Y-113452380D02*
X156323809Y-113452380D01*
X156419047Y-113500000D01*
X156466666Y-113547619D01*
X156514285Y-113642857D01*
X156561904Y-113833333D01*
X156561904Y-114071428D01*
X156514285Y-114261904D01*
X156466666Y-114357142D01*
X156419047Y-114404761D01*
X156323809Y-114452380D01*
X156228571Y-114452380D01*
X156133333Y-114404761D01*
X156085714Y-114357142D01*
X156038095Y-114261904D01*
X155990476Y-114071428D01*
X155990476Y-113833333D01*
X156038095Y-113642857D01*
X156085714Y-113547619D01*
X156133333Y-113500000D01*
X156228571Y-113452380D01*
%TO.C,D2*%
X29532380Y-52238095D02*
X28532380Y-52238095D01*
X28532380Y-52000000D01*
X28580000Y-51857142D01*
X28675238Y-51761904D01*
X28770476Y-51714285D01*
X28960952Y-51666666D01*
X29103809Y-51666666D01*
X29294285Y-51714285D01*
X29389523Y-51761904D01*
X29484761Y-51857142D01*
X29532380Y-52000000D01*
X29532380Y-52238095D01*
X28627619Y-51285714D02*
X28580000Y-51238095D01*
X28532380Y-51142857D01*
X28532380Y-50904761D01*
X28580000Y-50809523D01*
X28627619Y-50761904D01*
X28722857Y-50714285D01*
X28818095Y-50714285D01*
X28960952Y-50761904D01*
X29532380Y-51333333D01*
X29532380Y-50714285D01*
%TO.C,C23*%
X149507142Y-89892857D02*
X149554761Y-89940476D01*
X149602380Y-90083333D01*
X149602380Y-90178571D01*
X149554761Y-90321428D01*
X149459523Y-90416666D01*
X149364285Y-90464285D01*
X149173809Y-90511904D01*
X149030952Y-90511904D01*
X148840476Y-90464285D01*
X148745238Y-90416666D01*
X148650000Y-90321428D01*
X148602380Y-90178571D01*
X148602380Y-90083333D01*
X148650000Y-89940476D01*
X148697619Y-89892857D01*
X148697619Y-89511904D02*
X148650000Y-89464285D01*
X148602380Y-89369047D01*
X148602380Y-89130952D01*
X148650000Y-89035714D01*
X148697619Y-88988095D01*
X148792857Y-88940476D01*
X148888095Y-88940476D01*
X149030952Y-88988095D01*
X149602380Y-89559523D01*
X149602380Y-88940476D01*
X148602380Y-88607142D02*
X148602380Y-87988095D01*
X148983333Y-88321428D01*
X148983333Y-88178571D01*
X149030952Y-88083333D01*
X149078571Y-88035714D01*
X149173809Y-87988095D01*
X149411904Y-87988095D01*
X149507142Y-88035714D01*
X149554761Y-88083333D01*
X149602380Y-88178571D01*
X149602380Y-88464285D01*
X149554761Y-88559523D01*
X149507142Y-88607142D01*
%TO.C,D6*%
X117161904Y-24832380D02*
X117161904Y-23832380D01*
X117400000Y-23832380D01*
X117542857Y-23880000D01*
X117638095Y-23975238D01*
X117685714Y-24070476D01*
X117733333Y-24260952D01*
X117733333Y-24403809D01*
X117685714Y-24594285D01*
X117638095Y-24689523D01*
X117542857Y-24784761D01*
X117400000Y-24832380D01*
X117161904Y-24832380D01*
X118590476Y-23832380D02*
X118400000Y-23832380D01*
X118304761Y-23880000D01*
X118257142Y-23927619D01*
X118161904Y-24070476D01*
X118114285Y-24260952D01*
X118114285Y-24641904D01*
X118161904Y-24737142D01*
X118209523Y-24784761D01*
X118304761Y-24832380D01*
X118495238Y-24832380D01*
X118590476Y-24784761D01*
X118638095Y-24737142D01*
X118685714Y-24641904D01*
X118685714Y-24403809D01*
X118638095Y-24308571D01*
X118590476Y-24260952D01*
X118495238Y-24213333D01*
X118304761Y-24213333D01*
X118209523Y-24260952D01*
X118161904Y-24308571D01*
X118114285Y-24403809D01*
%TO.C,R1*%
X49405333Y-38344380D02*
X49072000Y-37868190D01*
X48833904Y-38344380D02*
X48833904Y-37344380D01*
X49214857Y-37344380D01*
X49310095Y-37392000D01*
X49357714Y-37439619D01*
X49405333Y-37534857D01*
X49405333Y-37677714D01*
X49357714Y-37772952D01*
X49310095Y-37820571D01*
X49214857Y-37868190D01*
X48833904Y-37868190D01*
X50357714Y-38344380D02*
X49786285Y-38344380D01*
X50072000Y-38344380D02*
X50072000Y-37344380D01*
X49976761Y-37487238D01*
X49881523Y-37582476D01*
X49786285Y-37630095D01*
%TO.C,J1*%
X49216666Y-21602380D02*
X49216666Y-22316666D01*
X49169047Y-22459523D01*
X49073809Y-22554761D01*
X48930952Y-22602380D01*
X48835714Y-22602380D01*
X50216666Y-22602380D02*
X49645238Y-22602380D01*
X49930952Y-22602380D02*
X49930952Y-21602380D01*
X49835714Y-21745238D01*
X49740476Y-21840476D01*
X49645238Y-21888095D01*
%TO.C,U8*%
X152538095Y-83652380D02*
X152538095Y-84461904D01*
X152585714Y-84557142D01*
X152633333Y-84604761D01*
X152728571Y-84652380D01*
X152919047Y-84652380D01*
X153014285Y-84604761D01*
X153061904Y-84557142D01*
X153109523Y-84461904D01*
X153109523Y-83652380D01*
X153728571Y-84080952D02*
X153633333Y-84033333D01*
X153585714Y-83985714D01*
X153538095Y-83890476D01*
X153538095Y-83842857D01*
X153585714Y-83747619D01*
X153633333Y-83700000D01*
X153728571Y-83652380D01*
X153919047Y-83652380D01*
X154014285Y-83700000D01*
X154061904Y-83747619D01*
X154109523Y-83842857D01*
X154109523Y-83890476D01*
X154061904Y-83985714D01*
X154014285Y-84033333D01*
X153919047Y-84080952D01*
X153728571Y-84080952D01*
X153633333Y-84128571D01*
X153585714Y-84176190D01*
X153538095Y-84271428D01*
X153538095Y-84461904D01*
X153585714Y-84557142D01*
X153633333Y-84604761D01*
X153728571Y-84652380D01*
X153919047Y-84652380D01*
X154014285Y-84604761D01*
X154061904Y-84557142D01*
X154109523Y-84461904D01*
X154109523Y-84271428D01*
X154061904Y-84176190D01*
X154014285Y-84128571D01*
X153919047Y-84080952D01*
X163400000Y-95802380D02*
X163400000Y-96040476D01*
X163161904Y-95945238D02*
X163400000Y-96040476D01*
X163638095Y-95945238D01*
X163257142Y-96230952D02*
X163400000Y-96040476D01*
X163542857Y-96230952D01*
%TO.C,R10*%
X33737142Y-31308380D02*
X33403809Y-30832190D01*
X33165714Y-31308380D02*
X33165714Y-30308380D01*
X33546666Y-30308380D01*
X33641904Y-30356000D01*
X33689523Y-30403619D01*
X33737142Y-30498857D01*
X33737142Y-30641714D01*
X33689523Y-30736952D01*
X33641904Y-30784571D01*
X33546666Y-30832190D01*
X33165714Y-30832190D01*
X34689523Y-31308380D02*
X34118095Y-31308380D01*
X34403809Y-31308380D02*
X34403809Y-30308380D01*
X34308571Y-30451238D01*
X34213333Y-30546476D01*
X34118095Y-30594095D01*
X35308571Y-30308380D02*
X35403809Y-30308380D01*
X35499047Y-30356000D01*
X35546666Y-30403619D01*
X35594285Y-30498857D01*
X35641904Y-30689333D01*
X35641904Y-30927428D01*
X35594285Y-31117904D01*
X35546666Y-31213142D01*
X35499047Y-31260761D01*
X35403809Y-31308380D01*
X35308571Y-31308380D01*
X35213333Y-31260761D01*
X35165714Y-31213142D01*
X35118095Y-31117904D01*
X35070476Y-30927428D01*
X35070476Y-30689333D01*
X35118095Y-30498857D01*
X35165714Y-30403619D01*
X35213333Y-30356000D01*
X35308571Y-30308380D01*
%TO.C,R17*%
X110257142Y-33652380D02*
X109923809Y-33176190D01*
X109685714Y-33652380D02*
X109685714Y-32652380D01*
X110066666Y-32652380D01*
X110161904Y-32700000D01*
X110209523Y-32747619D01*
X110257142Y-32842857D01*
X110257142Y-32985714D01*
X110209523Y-33080952D01*
X110161904Y-33128571D01*
X110066666Y-33176190D01*
X109685714Y-33176190D01*
X111209523Y-33652380D02*
X110638095Y-33652380D01*
X110923809Y-33652380D02*
X110923809Y-32652380D01*
X110828571Y-32795238D01*
X110733333Y-32890476D01*
X110638095Y-32938095D01*
X111542857Y-32652380D02*
X112209523Y-32652380D01*
X111780952Y-33652380D01*
%TO.C,R2*%
X44983333Y-42602380D02*
X44650000Y-42126190D01*
X44411904Y-42602380D02*
X44411904Y-41602380D01*
X44792857Y-41602380D01*
X44888095Y-41650000D01*
X44935714Y-41697619D01*
X44983333Y-41792857D01*
X44983333Y-41935714D01*
X44935714Y-42030952D01*
X44888095Y-42078571D01*
X44792857Y-42126190D01*
X44411904Y-42126190D01*
X45364285Y-41697619D02*
X45411904Y-41650000D01*
X45507142Y-41602380D01*
X45745238Y-41602380D01*
X45840476Y-41650000D01*
X45888095Y-41697619D01*
X45935714Y-41792857D01*
X45935714Y-41888095D01*
X45888095Y-42030952D01*
X45316666Y-42602380D01*
X45935714Y-42602380D01*
%TO.C,U3*%
X117094095Y-36028380D02*
X117094095Y-36837904D01*
X117141714Y-36933142D01*
X117189333Y-36980761D01*
X117284571Y-37028380D01*
X117475047Y-37028380D01*
X117570285Y-36980761D01*
X117617904Y-36933142D01*
X117665523Y-36837904D01*
X117665523Y-36028380D01*
X118046476Y-36028380D02*
X118665523Y-36028380D01*
X118332190Y-36409333D01*
X118475047Y-36409333D01*
X118570285Y-36456952D01*
X118617904Y-36504571D01*
X118665523Y-36599809D01*
X118665523Y-36837904D01*
X118617904Y-36933142D01*
X118570285Y-36980761D01*
X118475047Y-37028380D01*
X118189333Y-37028380D01*
X118094095Y-36980761D01*
X118046476Y-36933142D01*
%TO.C,R3*%
X35654380Y-26058666D02*
X35178190Y-26392000D01*
X35654380Y-26630095D02*
X34654380Y-26630095D01*
X34654380Y-26249142D01*
X34702000Y-26153904D01*
X34749619Y-26106285D01*
X34844857Y-26058666D01*
X34987714Y-26058666D01*
X35082952Y-26106285D01*
X35130571Y-26153904D01*
X35178190Y-26249142D01*
X35178190Y-26630095D01*
X34654380Y-25725333D02*
X34654380Y-25106285D01*
X35035333Y-25439619D01*
X35035333Y-25296761D01*
X35082952Y-25201523D01*
X35130571Y-25153904D01*
X35225809Y-25106285D01*
X35463904Y-25106285D01*
X35559142Y-25153904D01*
X35606761Y-25201523D01*
X35654380Y-25296761D01*
X35654380Y-25582476D01*
X35606761Y-25677714D01*
X35559142Y-25725333D01*
D12*
%TO.C,J6*%
X161076666Y-111054523D02*
X161076666Y-111961666D01*
X161016190Y-112143095D01*
X160895238Y-112264047D01*
X160713809Y-112324523D01*
X160592857Y-112324523D01*
X162225714Y-111054523D02*
X161983809Y-111054523D01*
X161862857Y-111115000D01*
X161802380Y-111175476D01*
X161681428Y-111356904D01*
X161620952Y-111598809D01*
X161620952Y-112082619D01*
X161681428Y-112203571D01*
X161741904Y-112264047D01*
X161862857Y-112324523D01*
X162104761Y-112324523D01*
X162225714Y-112264047D01*
X162286190Y-112203571D01*
X162346666Y-112082619D01*
X162346666Y-111780238D01*
X162286190Y-111659285D01*
X162225714Y-111598809D01*
X162104761Y-111538333D01*
X161862857Y-111538333D01*
X161741904Y-111598809D01*
X161681428Y-111659285D01*
X161620952Y-111780238D01*
D11*
%TO.C,R16*%
X57136380Y-31506857D02*
X56660190Y-31840190D01*
X57136380Y-32078285D02*
X56136380Y-32078285D01*
X56136380Y-31697333D01*
X56184000Y-31602095D01*
X56231619Y-31554476D01*
X56326857Y-31506857D01*
X56469714Y-31506857D01*
X56564952Y-31554476D01*
X56612571Y-31602095D01*
X56660190Y-31697333D01*
X56660190Y-32078285D01*
X57136380Y-30554476D02*
X57136380Y-31125904D01*
X57136380Y-30840190D02*
X56136380Y-30840190D01*
X56279238Y-30935428D01*
X56374476Y-31030666D01*
X56422095Y-31125904D01*
X56136380Y-29697333D02*
X56136380Y-29887809D01*
X56184000Y-29983047D01*
X56231619Y-30030666D01*
X56374476Y-30125904D01*
X56564952Y-30173523D01*
X56945904Y-30173523D01*
X57041142Y-30125904D01*
X57088761Y-30078285D01*
X57136380Y-29983047D01*
X57136380Y-29792571D01*
X57088761Y-29697333D01*
X57041142Y-29649714D01*
X56945904Y-29602095D01*
X56707809Y-29602095D01*
X56612571Y-29649714D01*
X56564952Y-29697333D01*
X56517333Y-29792571D01*
X56517333Y-29983047D01*
X56564952Y-30078285D01*
X56612571Y-30125904D01*
X56707809Y-30173523D01*
%TO.C,Y1*%
X155733809Y-102592190D02*
X155733809Y-103068380D01*
X155400476Y-102068380D02*
X155733809Y-102592190D01*
X156067142Y-102068380D01*
X156924285Y-103068380D02*
X156352857Y-103068380D01*
X156638571Y-103068380D02*
X156638571Y-102068380D01*
X156543333Y-102211238D01*
X156448095Y-102306476D01*
X156352857Y-102354095D01*
%TO.C,C12*%
X160757142Y-84192857D02*
X160804761Y-84240476D01*
X160852380Y-84383333D01*
X160852380Y-84478571D01*
X160804761Y-84621428D01*
X160709523Y-84716666D01*
X160614285Y-84764285D01*
X160423809Y-84811904D01*
X160280952Y-84811904D01*
X160090476Y-84764285D01*
X159995238Y-84716666D01*
X159900000Y-84621428D01*
X159852380Y-84478571D01*
X159852380Y-84383333D01*
X159900000Y-84240476D01*
X159947619Y-84192857D01*
X160852380Y-83240476D02*
X160852380Y-83811904D01*
X160852380Y-83526190D02*
X159852380Y-83526190D01*
X159995238Y-83621428D01*
X160090476Y-83716666D01*
X160138095Y-83811904D01*
X159947619Y-82859523D02*
X159900000Y-82811904D01*
X159852380Y-82716666D01*
X159852380Y-82478571D01*
X159900000Y-82383333D01*
X159947619Y-82335714D01*
X160042857Y-82288095D01*
X160138095Y-82288095D01*
X160280952Y-82335714D01*
X160852380Y-82907142D01*
X160852380Y-82288095D01*
%TO.C,J4*%
X176477380Y-44944333D02*
X177191666Y-44944333D01*
X177334523Y-44991952D01*
X177429761Y-45087190D01*
X177477380Y-45230047D01*
X177477380Y-45325285D01*
X176810714Y-44039571D02*
X177477380Y-44039571D01*
X176429761Y-44277666D02*
X177144047Y-44515761D01*
X177144047Y-43896714D01*
%TO.C,R25*%
X143607142Y-85452380D02*
X143273809Y-84976190D01*
X143035714Y-85452380D02*
X143035714Y-84452380D01*
X143416666Y-84452380D01*
X143511904Y-84500000D01*
X143559523Y-84547619D01*
X143607142Y-84642857D01*
X143607142Y-84785714D01*
X143559523Y-84880952D01*
X143511904Y-84928571D01*
X143416666Y-84976190D01*
X143035714Y-84976190D01*
X143988095Y-84547619D02*
X144035714Y-84500000D01*
X144130952Y-84452380D01*
X144369047Y-84452380D01*
X144464285Y-84500000D01*
X144511904Y-84547619D01*
X144559523Y-84642857D01*
X144559523Y-84738095D01*
X144511904Y-84880952D01*
X143940476Y-85452380D01*
X144559523Y-85452380D01*
X145464285Y-84452380D02*
X144988095Y-84452380D01*
X144940476Y-84928571D01*
X144988095Y-84880952D01*
X145083333Y-84833333D01*
X145321428Y-84833333D01*
X145416666Y-84880952D01*
X145464285Y-84928571D01*
X145511904Y-85023809D01*
X145511904Y-85261904D01*
X145464285Y-85357142D01*
X145416666Y-85404761D01*
X145321428Y-85452380D01*
X145083333Y-85452380D01*
X144988095Y-85404761D01*
X144940476Y-85357142D01*
%TO.C,D3*%
X63052380Y-36938095D02*
X62052380Y-36938095D01*
X62052380Y-36700000D01*
X62100000Y-36557142D01*
X62195238Y-36461904D01*
X62290476Y-36414285D01*
X62480952Y-36366666D01*
X62623809Y-36366666D01*
X62814285Y-36414285D01*
X62909523Y-36461904D01*
X63004761Y-36557142D01*
X63052380Y-36700000D01*
X63052380Y-36938095D01*
X62052380Y-36033333D02*
X62052380Y-35414285D01*
X62433333Y-35747619D01*
X62433333Y-35604761D01*
X62480952Y-35509523D01*
X62528571Y-35461904D01*
X62623809Y-35414285D01*
X62861904Y-35414285D01*
X62957142Y-35461904D01*
X63004761Y-35509523D01*
X63052380Y-35604761D01*
X63052380Y-35890476D01*
X63004761Y-35985714D01*
X62957142Y-36033333D01*
%TO.C,J9*%
X138416666Y-35002380D02*
X138416666Y-35716666D01*
X138369047Y-35859523D01*
X138273809Y-35954761D01*
X138130952Y-36002380D01*
X138035714Y-36002380D01*
X138940476Y-36002380D02*
X139130952Y-36002380D01*
X139226190Y-35954761D01*
X139273809Y-35907142D01*
X139369047Y-35764285D01*
X139416666Y-35573809D01*
X139416666Y-35192857D01*
X139369047Y-35097619D01*
X139321428Y-35050000D01*
X139226190Y-35002380D01*
X139035714Y-35002380D01*
X138940476Y-35050000D01*
X138892857Y-35097619D01*
X138845238Y-35192857D01*
X138845238Y-35430952D01*
X138892857Y-35526190D01*
X138940476Y-35573809D01*
X139035714Y-35621428D01*
X139226190Y-35621428D01*
X139321428Y-35573809D01*
X139369047Y-35526190D01*
X139416666Y-35430952D01*
X149100000Y-26252380D02*
X149100000Y-26490476D01*
X148861904Y-26395238D02*
X149100000Y-26490476D01*
X149338095Y-26395238D01*
X148957142Y-26680952D02*
X149100000Y-26490476D01*
X149242857Y-26680952D01*
%TO.C,Q1*%
X35475121Y-44387409D02*
X35427416Y-44482819D01*
X35332006Y-44578229D01*
X35188891Y-44721344D01*
X35141187Y-44816753D01*
X35141187Y-44912163D01*
X35379711Y-44864458D02*
X35332006Y-44959868D01*
X35236596Y-45055278D01*
X35045777Y-45102983D01*
X34711842Y-45102983D01*
X34521023Y-45055278D01*
X34425613Y-44959868D01*
X34377908Y-44864458D01*
X34377908Y-44673639D01*
X34425613Y-44578229D01*
X34521023Y-44482819D01*
X34711842Y-44435114D01*
X35045777Y-44435114D01*
X35236596Y-44482819D01*
X35332006Y-44578229D01*
X35379711Y-44673639D01*
X35379711Y-44864458D01*
X35379711Y-43481016D02*
X35379711Y-44053475D01*
X35379711Y-43767246D02*
X34377908Y-43767246D01*
X34521023Y-43862655D01*
X34616433Y-43958065D01*
X34664138Y-44053475D01*
%TO.C,CM4*%
X85696786Y-24357142D02*
X85649167Y-24404761D01*
X85506310Y-24452380D01*
X85411072Y-24452380D01*
X85268215Y-24404761D01*
X85172977Y-24309523D01*
X85125358Y-24214285D01*
X85077739Y-24023809D01*
X85077739Y-23880952D01*
X85125358Y-23690476D01*
X85172977Y-23595238D01*
X85268215Y-23500000D01*
X85411072Y-23452380D01*
X85506310Y-23452380D01*
X85649167Y-23500000D01*
X85696786Y-23547619D01*
X86125358Y-24452380D02*
X86125358Y-23452380D01*
X86458691Y-24166666D01*
X86792024Y-23452380D01*
X86792024Y-24452380D01*
X87696786Y-23785714D02*
X87696786Y-24452380D01*
X87458691Y-23404761D02*
X87220596Y-24119047D01*
X87839643Y-24119047D01*
%TO.C,R4*%
X52624380Y-26058666D02*
X52148190Y-26392000D01*
X52624380Y-26630095D02*
X51624380Y-26630095D01*
X51624380Y-26249142D01*
X51672000Y-26153904D01*
X51719619Y-26106285D01*
X51814857Y-26058666D01*
X51957714Y-26058666D01*
X52052952Y-26106285D01*
X52100571Y-26153904D01*
X52148190Y-26249142D01*
X52148190Y-26630095D01*
X51957714Y-25201523D02*
X52624380Y-25201523D01*
X51576761Y-25439619D02*
X52291047Y-25677714D01*
X52291047Y-25058666D01*
%TO.C,C7*%
X164907142Y-40554166D02*
X164954761Y-40601785D01*
X165002380Y-40744642D01*
X165002380Y-40839880D01*
X164954761Y-40982738D01*
X164859523Y-41077976D01*
X164764285Y-41125595D01*
X164573809Y-41173214D01*
X164430952Y-41173214D01*
X164240476Y-41125595D01*
X164145238Y-41077976D01*
X164050000Y-40982738D01*
X164002380Y-40839880D01*
X164002380Y-40744642D01*
X164050000Y-40601785D01*
X164097619Y-40554166D01*
X164002380Y-40220833D02*
X164002380Y-39554166D01*
X165002380Y-39982738D01*
%TO.C,R23*%
X147439142Y-86600380D02*
X147105809Y-86124190D01*
X146867714Y-86600380D02*
X146867714Y-85600380D01*
X147248666Y-85600380D01*
X147343904Y-85648000D01*
X147391523Y-85695619D01*
X147439142Y-85790857D01*
X147439142Y-85933714D01*
X147391523Y-86028952D01*
X147343904Y-86076571D01*
X147248666Y-86124190D01*
X146867714Y-86124190D01*
X147820095Y-85695619D02*
X147867714Y-85648000D01*
X147962952Y-85600380D01*
X148201047Y-85600380D01*
X148296285Y-85648000D01*
X148343904Y-85695619D01*
X148391523Y-85790857D01*
X148391523Y-85886095D01*
X148343904Y-86028952D01*
X147772476Y-86600380D01*
X148391523Y-86600380D01*
X148724857Y-85600380D02*
X149343904Y-85600380D01*
X149010571Y-85981333D01*
X149153428Y-85981333D01*
X149248666Y-86028952D01*
X149296285Y-86076571D01*
X149343904Y-86171809D01*
X149343904Y-86409904D01*
X149296285Y-86505142D01*
X149248666Y-86552761D01*
X149153428Y-86600380D01*
X148867714Y-86600380D01*
X148772476Y-86552761D01*
X148724857Y-86505142D01*
%TO.C,C11*%
X147407142Y-99892857D02*
X147454761Y-99940476D01*
X147502380Y-100083333D01*
X147502380Y-100178571D01*
X147454761Y-100321428D01*
X147359523Y-100416666D01*
X147264285Y-100464285D01*
X147073809Y-100511904D01*
X146930952Y-100511904D01*
X146740476Y-100464285D01*
X146645238Y-100416666D01*
X146550000Y-100321428D01*
X146502380Y-100178571D01*
X146502380Y-100083333D01*
X146550000Y-99940476D01*
X146597619Y-99892857D01*
X147502380Y-98940476D02*
X147502380Y-99511904D01*
X147502380Y-99226190D02*
X146502380Y-99226190D01*
X146645238Y-99321428D01*
X146740476Y-99416666D01*
X146788095Y-99511904D01*
X147502380Y-97988095D02*
X147502380Y-98559523D01*
X147502380Y-98273809D02*
X146502380Y-98273809D01*
X146645238Y-98369047D01*
X146740476Y-98464285D01*
X146788095Y-98559523D01*
%TO.C,U6*%
X157938095Y-123052380D02*
X157938095Y-123861904D01*
X157985714Y-123957142D01*
X158033333Y-124004761D01*
X158128571Y-124052380D01*
X158319047Y-124052380D01*
X158414285Y-124004761D01*
X158461904Y-123957142D01*
X158509523Y-123861904D01*
X158509523Y-123052380D01*
X159414285Y-123052380D02*
X159223809Y-123052380D01*
X159128571Y-123100000D01*
X159080952Y-123147619D01*
X158985714Y-123290476D01*
X158938095Y-123480952D01*
X158938095Y-123861904D01*
X158985714Y-123957142D01*
X159033333Y-124004761D01*
X159128571Y-124052380D01*
X159319047Y-124052380D01*
X159414285Y-124004761D01*
X159461904Y-123957142D01*
X159509523Y-123861904D01*
X159509523Y-123623809D01*
X159461904Y-123528571D01*
X159414285Y-123480952D01*
X159319047Y-123433333D01*
X159128571Y-123433333D01*
X159033333Y-123480952D01*
X158985714Y-123528571D01*
X158938095Y-123623809D01*
%TO.C,J2*%
X62066666Y-50452380D02*
X62066666Y-51166666D01*
X62019047Y-51309523D01*
X61923809Y-51404761D01*
X61780952Y-51452380D01*
X61685714Y-51452380D01*
X62495238Y-50547619D02*
X62542857Y-50500000D01*
X62638095Y-50452380D01*
X62876190Y-50452380D01*
X62971428Y-50500000D01*
X63019047Y-50547619D01*
X63066666Y-50642857D01*
X63066666Y-50738095D01*
X63019047Y-50880952D01*
X62447619Y-51452380D01*
X63066666Y-51452380D01*
X59252380Y-52200000D02*
X59490476Y-52200000D01*
X59395238Y-52438095D02*
X59490476Y-52200000D01*
X59395238Y-51961904D01*
X59680952Y-52342857D02*
X59490476Y-52200000D01*
X59680952Y-52057142D01*
%TO.C,R5*%
X40333333Y-39544380D02*
X40000000Y-39068190D01*
X39761904Y-39544380D02*
X39761904Y-38544380D01*
X40142857Y-38544380D01*
X40238095Y-38592000D01*
X40285714Y-38639619D01*
X40333333Y-38734857D01*
X40333333Y-38877714D01*
X40285714Y-38972952D01*
X40238095Y-39020571D01*
X40142857Y-39068190D01*
X39761904Y-39068190D01*
X41238095Y-38544380D02*
X40761904Y-38544380D01*
X40714285Y-39020571D01*
X40761904Y-38972952D01*
X40857142Y-38925333D01*
X41095238Y-38925333D01*
X41190476Y-38972952D01*
X41238095Y-39020571D01*
X41285714Y-39115809D01*
X41285714Y-39353904D01*
X41238095Y-39449142D01*
X41190476Y-39496761D01*
X41095238Y-39544380D01*
X40857142Y-39544380D01*
X40761904Y-39496761D01*
X40714285Y-39449142D01*
%TO.C,J7*%
X170116666Y-93452380D02*
X170116666Y-94166666D01*
X170069047Y-94309523D01*
X169973809Y-94404761D01*
X169830952Y-94452380D01*
X169735714Y-94452380D01*
X170497619Y-93452380D02*
X171164285Y-93452380D01*
X170735714Y-94452380D01*
X178014380Y-104486500D02*
X178252476Y-104486500D01*
X178157238Y-104724595D02*
X178252476Y-104486500D01*
X178157238Y-104248404D01*
X178442952Y-104629357D02*
X178252476Y-104486500D01*
X178442952Y-104343642D01*
%TO.C,C1*%
X54605333Y-40849142D02*
X54557714Y-40896761D01*
X54414857Y-40944380D01*
X54319619Y-40944380D01*
X54176761Y-40896761D01*
X54081523Y-40801523D01*
X54033904Y-40706285D01*
X53986285Y-40515809D01*
X53986285Y-40372952D01*
X54033904Y-40182476D01*
X54081523Y-40087238D01*
X54176761Y-39992000D01*
X54319619Y-39944380D01*
X54414857Y-39944380D01*
X54557714Y-39992000D01*
X54605333Y-40039619D01*
X55557714Y-40944380D02*
X54986285Y-40944380D01*
X55272000Y-40944380D02*
X55272000Y-39944380D01*
X55176761Y-40087238D01*
X55081523Y-40182476D01*
X54986285Y-40230095D01*
%TO.C,C17*%
X152011142Y-112625142D02*
X151963523Y-112672761D01*
X151820666Y-112720380D01*
X151725428Y-112720380D01*
X151582571Y-112672761D01*
X151487333Y-112577523D01*
X151439714Y-112482285D01*
X151392095Y-112291809D01*
X151392095Y-112148952D01*
X151439714Y-111958476D01*
X151487333Y-111863238D01*
X151582571Y-111768000D01*
X151725428Y-111720380D01*
X151820666Y-111720380D01*
X151963523Y-111768000D01*
X152011142Y-111815619D01*
X152963523Y-112720380D02*
X152392095Y-112720380D01*
X152677809Y-112720380D02*
X152677809Y-111720380D01*
X152582571Y-111863238D01*
X152487333Y-111958476D01*
X152392095Y-112006095D01*
X153296857Y-111720380D02*
X153963523Y-111720380D01*
X153534952Y-112720380D01*
%TO.C,R7*%
X40683333Y-48952380D02*
X40350000Y-48476190D01*
X40111904Y-48952380D02*
X40111904Y-47952380D01*
X40492857Y-47952380D01*
X40588095Y-48000000D01*
X40635714Y-48047619D01*
X40683333Y-48142857D01*
X40683333Y-48285714D01*
X40635714Y-48380952D01*
X40588095Y-48428571D01*
X40492857Y-48476190D01*
X40111904Y-48476190D01*
X41016666Y-47952380D02*
X41683333Y-47952380D01*
X41254761Y-48952380D01*
%TO.C,TP1*%
X58538095Y-57754380D02*
X59109523Y-57754380D01*
X58823809Y-58754380D02*
X58823809Y-57754380D01*
X59442857Y-58754380D02*
X59442857Y-57754380D01*
X59823809Y-57754380D01*
X59919047Y-57802000D01*
X59966666Y-57849619D01*
X60014285Y-57944857D01*
X60014285Y-58087714D01*
X59966666Y-58182952D01*
X59919047Y-58230571D01*
X59823809Y-58278190D01*
X59442857Y-58278190D01*
X60966666Y-58754380D02*
X60395238Y-58754380D01*
X60680952Y-58754380D02*
X60680952Y-57754380D01*
X60585714Y-57897238D01*
X60490476Y-57992476D01*
X60395238Y-58040095D01*
%TO.C,C14*%
X165557142Y-99892857D02*
X165604761Y-99940476D01*
X165652380Y-100083333D01*
X165652380Y-100178571D01*
X165604761Y-100321428D01*
X165509523Y-100416666D01*
X165414285Y-100464285D01*
X165223809Y-100511904D01*
X165080952Y-100511904D01*
X164890476Y-100464285D01*
X164795238Y-100416666D01*
X164700000Y-100321428D01*
X164652380Y-100178571D01*
X164652380Y-100083333D01*
X164700000Y-99940476D01*
X164747619Y-99892857D01*
X165652380Y-98940476D02*
X165652380Y-99511904D01*
X165652380Y-99226190D02*
X164652380Y-99226190D01*
X164795238Y-99321428D01*
X164890476Y-99416666D01*
X164938095Y-99511904D01*
X164985714Y-98083333D02*
X165652380Y-98083333D01*
X164604761Y-98321428D02*
X165319047Y-98559523D01*
X165319047Y-97940476D01*
%TO.C,U7*%
X158038095Y-116552380D02*
X158038095Y-117361904D01*
X158085714Y-117457142D01*
X158133333Y-117504761D01*
X158228571Y-117552380D01*
X158419047Y-117552380D01*
X158514285Y-117504761D01*
X158561904Y-117457142D01*
X158609523Y-117361904D01*
X158609523Y-116552380D01*
X158990476Y-116552380D02*
X159657142Y-116552380D01*
X159228571Y-117552380D01*
%TO.C,D4*%
X63052380Y-31538095D02*
X62052380Y-31538095D01*
X62052380Y-31300000D01*
X62100000Y-31157142D01*
X62195238Y-31061904D01*
X62290476Y-31014285D01*
X62480952Y-30966666D01*
X62623809Y-30966666D01*
X62814285Y-31014285D01*
X62909523Y-31061904D01*
X63004761Y-31157142D01*
X63052380Y-31300000D01*
X63052380Y-31538095D01*
X62385714Y-30109523D02*
X63052380Y-30109523D01*
X62004761Y-30347619D02*
X62719047Y-30585714D01*
X62719047Y-29966666D01*
%TO.C,R19*%
X121610380Y-31884857D02*
X121134190Y-32218190D01*
X121610380Y-32456285D02*
X120610380Y-32456285D01*
X120610380Y-32075333D01*
X120658000Y-31980095D01*
X120705619Y-31932476D01*
X120800857Y-31884857D01*
X120943714Y-31884857D01*
X121038952Y-31932476D01*
X121086571Y-31980095D01*
X121134190Y-32075333D01*
X121134190Y-32456285D01*
X121610380Y-30932476D02*
X121610380Y-31503904D01*
X121610380Y-31218190D02*
X120610380Y-31218190D01*
X120753238Y-31313428D01*
X120848476Y-31408666D01*
X120896095Y-31503904D01*
X121610380Y-30456285D02*
X121610380Y-30265809D01*
X121562761Y-30170571D01*
X121515142Y-30122952D01*
X121372285Y-30027714D01*
X121181809Y-29980095D01*
X120800857Y-29980095D01*
X120705619Y-30027714D01*
X120658000Y-30075333D01*
X120610380Y-30170571D01*
X120610380Y-30361047D01*
X120658000Y-30456285D01*
X120705619Y-30503904D01*
X120800857Y-30551523D01*
X121038952Y-30551523D01*
X121134190Y-30503904D01*
X121181809Y-30456285D01*
X121229428Y-30361047D01*
X121229428Y-30170571D01*
X121181809Y-30075333D01*
X121134190Y-30027714D01*
X121038952Y-29980095D01*
%TO.C,C10*%
X155544642Y-77807142D02*
X155497023Y-77854761D01*
X155354166Y-77902380D01*
X155258928Y-77902380D01*
X155116071Y-77854761D01*
X155020833Y-77759523D01*
X154973214Y-77664285D01*
X154925595Y-77473809D01*
X154925595Y-77330952D01*
X154973214Y-77140476D01*
X155020833Y-77045238D01*
X155116071Y-76950000D01*
X155258928Y-76902380D01*
X155354166Y-76902380D01*
X155497023Y-76950000D01*
X155544642Y-76997619D01*
X156497023Y-77902380D02*
X155925595Y-77902380D01*
X156211309Y-77902380D02*
X156211309Y-76902380D01*
X156116071Y-77045238D01*
X156020833Y-77140476D01*
X155925595Y-77188095D01*
X157116071Y-76902380D02*
X157211309Y-76902380D01*
X157306547Y-76950000D01*
X157354166Y-76997619D01*
X157401785Y-77092857D01*
X157449404Y-77283333D01*
X157449404Y-77521428D01*
X157401785Y-77711904D01*
X157354166Y-77807142D01*
X157306547Y-77854761D01*
X157211309Y-77902380D01*
X157116071Y-77902380D01*
X157020833Y-77854761D01*
X156973214Y-77807142D01*
X156925595Y-77711904D01*
X156877976Y-77521428D01*
X156877976Y-77283333D01*
X156925595Y-77092857D01*
X156973214Y-76997619D01*
X157020833Y-76950000D01*
X157116071Y-76902380D01*
%TO.C,C5*%
X46205333Y-48599142D02*
X46157714Y-48646761D01*
X46014857Y-48694380D01*
X45919619Y-48694380D01*
X45776761Y-48646761D01*
X45681523Y-48551523D01*
X45633904Y-48456285D01*
X45586285Y-48265809D01*
X45586285Y-48122952D01*
X45633904Y-47932476D01*
X45681523Y-47837238D01*
X45776761Y-47742000D01*
X45919619Y-47694380D01*
X46014857Y-47694380D01*
X46157714Y-47742000D01*
X46205333Y-47789619D01*
X47110095Y-47694380D02*
X46633904Y-47694380D01*
X46586285Y-48170571D01*
X46633904Y-48122952D01*
X46729142Y-48075333D01*
X46967238Y-48075333D01*
X47062476Y-48122952D01*
X47110095Y-48170571D01*
X47157714Y-48265809D01*
X47157714Y-48503904D01*
X47110095Y-48599142D01*
X47062476Y-48646761D01*
X46967238Y-48694380D01*
X46729142Y-48694380D01*
X46633904Y-48646761D01*
X46586285Y-48599142D01*
%TO.C,R11*%
X46748380Y-34808857D02*
X46272190Y-35142190D01*
X46748380Y-35380285D02*
X45748380Y-35380285D01*
X45748380Y-34999333D01*
X45796000Y-34904095D01*
X45843619Y-34856476D01*
X45938857Y-34808857D01*
X46081714Y-34808857D01*
X46176952Y-34856476D01*
X46224571Y-34904095D01*
X46272190Y-34999333D01*
X46272190Y-35380285D01*
X46748380Y-33856476D02*
X46748380Y-34427904D01*
X46748380Y-34142190D02*
X45748380Y-34142190D01*
X45891238Y-34237428D01*
X45986476Y-34332666D01*
X46034095Y-34427904D01*
X46748380Y-32904095D02*
X46748380Y-33475523D01*
X46748380Y-33189809D02*
X45748380Y-33189809D01*
X45891238Y-33285047D01*
X45986476Y-33380285D01*
X46034095Y-33475523D01*
%TO.C,R8*%
X35605333Y-52440380D02*
X35272000Y-51964190D01*
X35033904Y-52440380D02*
X35033904Y-51440380D01*
X35414857Y-51440380D01*
X35510095Y-51488000D01*
X35557714Y-51535619D01*
X35605333Y-51630857D01*
X35605333Y-51773714D01*
X35557714Y-51868952D01*
X35510095Y-51916571D01*
X35414857Y-51964190D01*
X35033904Y-51964190D01*
X36176761Y-51868952D02*
X36081523Y-51821333D01*
X36033904Y-51773714D01*
X35986285Y-51678476D01*
X35986285Y-51630857D01*
X36033904Y-51535619D01*
X36081523Y-51488000D01*
X36176761Y-51440380D01*
X36367238Y-51440380D01*
X36462476Y-51488000D01*
X36510095Y-51535619D01*
X36557714Y-51630857D01*
X36557714Y-51678476D01*
X36510095Y-51773714D01*
X36462476Y-51821333D01*
X36367238Y-51868952D01*
X36176761Y-51868952D01*
X36081523Y-51916571D01*
X36033904Y-51964190D01*
X35986285Y-52059428D01*
X35986285Y-52249904D01*
X36033904Y-52345142D01*
X36081523Y-52392761D01*
X36176761Y-52440380D01*
X36367238Y-52440380D01*
X36462476Y-52392761D01*
X36510095Y-52345142D01*
X36557714Y-52249904D01*
X36557714Y-52059428D01*
X36510095Y-51964190D01*
X36462476Y-51916571D01*
X36367238Y-51868952D01*
%TO.C,R13*%
X45257142Y-31802380D02*
X44923809Y-31326190D01*
X44685714Y-31802380D02*
X44685714Y-30802380D01*
X45066666Y-30802380D01*
X45161904Y-30850000D01*
X45209523Y-30897619D01*
X45257142Y-30992857D01*
X45257142Y-31135714D01*
X45209523Y-31230952D01*
X45161904Y-31278571D01*
X45066666Y-31326190D01*
X44685714Y-31326190D01*
X46209523Y-31802380D02*
X45638095Y-31802380D01*
X45923809Y-31802380D02*
X45923809Y-30802380D01*
X45828571Y-30945238D01*
X45733333Y-31040476D01*
X45638095Y-31088095D01*
X46542857Y-30802380D02*
X47161904Y-30802380D01*
X46828571Y-31183333D01*
X46971428Y-31183333D01*
X47066666Y-31230952D01*
X47114285Y-31278571D01*
X47161904Y-31373809D01*
X47161904Y-31611904D01*
X47114285Y-31707142D01*
X47066666Y-31754761D01*
X46971428Y-31802380D01*
X46685714Y-31802380D01*
X46590476Y-31754761D01*
X46542857Y-31707142D01*
%TO.C,R6*%
X39233333Y-47602380D02*
X38900000Y-47126190D01*
X38661904Y-47602380D02*
X38661904Y-46602380D01*
X39042857Y-46602380D01*
X39138095Y-46650000D01*
X39185714Y-46697619D01*
X39233333Y-46792857D01*
X39233333Y-46935714D01*
X39185714Y-47030952D01*
X39138095Y-47078571D01*
X39042857Y-47126190D01*
X38661904Y-47126190D01*
X40090476Y-46602380D02*
X39900000Y-46602380D01*
X39804761Y-46650000D01*
X39757142Y-46697619D01*
X39661904Y-46840476D01*
X39614285Y-47030952D01*
X39614285Y-47411904D01*
X39661904Y-47507142D01*
X39709523Y-47554761D01*
X39804761Y-47602380D01*
X39995238Y-47602380D01*
X40090476Y-47554761D01*
X40138095Y-47507142D01*
X40185714Y-47411904D01*
X40185714Y-47173809D01*
X40138095Y-47078571D01*
X40090476Y-47030952D01*
X39995238Y-46983333D01*
X39804761Y-46983333D01*
X39709523Y-47030952D01*
X39661904Y-47078571D01*
X39614285Y-47173809D01*
%TO.C,C15*%
X159885142Y-102973142D02*
X159837523Y-103020761D01*
X159694666Y-103068380D01*
X159599428Y-103068380D01*
X159456571Y-103020761D01*
X159361333Y-102925523D01*
X159313714Y-102830285D01*
X159266095Y-102639809D01*
X159266095Y-102496952D01*
X159313714Y-102306476D01*
X159361333Y-102211238D01*
X159456571Y-102116000D01*
X159599428Y-102068380D01*
X159694666Y-102068380D01*
X159837523Y-102116000D01*
X159885142Y-102163619D01*
X160837523Y-103068380D02*
X160266095Y-103068380D01*
X160551809Y-103068380D02*
X160551809Y-102068380D01*
X160456571Y-102211238D01*
X160361333Y-102306476D01*
X160266095Y-102354095D01*
X161742285Y-102068380D02*
X161266095Y-102068380D01*
X161218476Y-102544571D01*
X161266095Y-102496952D01*
X161361333Y-102449333D01*
X161599428Y-102449333D01*
X161694666Y-102496952D01*
X161742285Y-102544571D01*
X161789904Y-102639809D01*
X161789904Y-102877904D01*
X161742285Y-102973142D01*
X161694666Y-103020761D01*
X161599428Y-103068380D01*
X161361333Y-103068380D01*
X161266095Y-103020761D01*
X161218476Y-102973142D01*
%TO.C,U1*%
X40459249Y-41651773D02*
X40459249Y-42462195D01*
X40506921Y-42557539D01*
X40554593Y-42605211D01*
X40649937Y-42652883D01*
X40840624Y-42652883D01*
X40935968Y-42605211D01*
X40983640Y-42557539D01*
X41031312Y-42462195D01*
X41031312Y-41651773D01*
X42032422Y-42652883D02*
X41460359Y-42652883D01*
X41746390Y-42652883D02*
X41746390Y-41651773D01*
X41651047Y-41794788D01*
X41555703Y-41890132D01*
X41460359Y-41937804D01*
%TO.C,R9*%
X52405333Y-28344380D02*
X52072000Y-27868190D01*
X51833904Y-28344380D02*
X51833904Y-27344380D01*
X52214857Y-27344380D01*
X52310095Y-27392000D01*
X52357714Y-27439619D01*
X52405333Y-27534857D01*
X52405333Y-27677714D01*
X52357714Y-27772952D01*
X52310095Y-27820571D01*
X52214857Y-27868190D01*
X51833904Y-27868190D01*
X52881523Y-28344380D02*
X53072000Y-28344380D01*
X53167238Y-28296761D01*
X53214857Y-28249142D01*
X53310095Y-28106285D01*
X53357714Y-27915809D01*
X53357714Y-27534857D01*
X53310095Y-27439619D01*
X53262476Y-27392000D01*
X53167238Y-27344380D01*
X52976761Y-27344380D01*
X52881523Y-27392000D01*
X52833904Y-27439619D01*
X52786285Y-27534857D01*
X52786285Y-27772952D01*
X52833904Y-27868190D01*
X52881523Y-27915809D01*
X52976761Y-27963428D01*
X53167238Y-27963428D01*
X53262476Y-27915809D01*
X53310095Y-27868190D01*
X53357714Y-27772952D01*
%TO.C,R22*%
X147439142Y-79954380D02*
X147105809Y-79478190D01*
X146867714Y-79954380D02*
X146867714Y-78954380D01*
X147248666Y-78954380D01*
X147343904Y-79002000D01*
X147391523Y-79049619D01*
X147439142Y-79144857D01*
X147439142Y-79287714D01*
X147391523Y-79382952D01*
X147343904Y-79430571D01*
X147248666Y-79478190D01*
X146867714Y-79478190D01*
X147820095Y-79049619D02*
X147867714Y-79002000D01*
X147962952Y-78954380D01*
X148201047Y-78954380D01*
X148296285Y-79002000D01*
X148343904Y-79049619D01*
X148391523Y-79144857D01*
X148391523Y-79240095D01*
X148343904Y-79382952D01*
X147772476Y-79954380D01*
X148391523Y-79954380D01*
X148772476Y-79049619D02*
X148820095Y-79002000D01*
X148915333Y-78954380D01*
X149153428Y-78954380D01*
X149248666Y-79002000D01*
X149296285Y-79049619D01*
X149343904Y-79144857D01*
X149343904Y-79240095D01*
X149296285Y-79382952D01*
X148724857Y-79954380D01*
X149343904Y-79954380D01*
D13*
%TO.C,B1*%
X30905714Y-32365714D02*
X30974285Y-32388571D01*
X30997142Y-32411428D01*
X31020000Y-32457142D01*
X31020000Y-32525714D01*
X30997142Y-32571428D01*
X30974285Y-32594285D01*
X30928571Y-32617142D01*
X30745714Y-32617142D01*
X30745714Y-32137142D01*
X30905714Y-32137142D01*
X30951428Y-32160000D01*
X30974285Y-32182857D01*
X30997142Y-32228571D01*
X30997142Y-32274285D01*
X30974285Y-32320000D01*
X30951428Y-32342857D01*
X30905714Y-32365714D01*
X30745714Y-32365714D01*
X31477142Y-32617142D02*
X31202857Y-32617142D01*
X31340000Y-32617142D02*
X31340000Y-32137142D01*
X31294285Y-32205714D01*
X31248571Y-32251428D01*
X31202857Y-32274285D01*
D11*
%TO.C,C3*%
X37405333Y-30049142D02*
X37357714Y-30096761D01*
X37214857Y-30144380D01*
X37119619Y-30144380D01*
X36976761Y-30096761D01*
X36881523Y-30001523D01*
X36833904Y-29906285D01*
X36786285Y-29715809D01*
X36786285Y-29572952D01*
X36833904Y-29382476D01*
X36881523Y-29287238D01*
X36976761Y-29192000D01*
X37119619Y-29144380D01*
X37214857Y-29144380D01*
X37357714Y-29192000D01*
X37405333Y-29239619D01*
X37738666Y-29144380D02*
X38357714Y-29144380D01*
X38024380Y-29525333D01*
X38167238Y-29525333D01*
X38262476Y-29572952D01*
X38310095Y-29620571D01*
X38357714Y-29715809D01*
X38357714Y-29953904D01*
X38310095Y-30049142D01*
X38262476Y-30096761D01*
X38167238Y-30144380D01*
X37881523Y-30144380D01*
X37786285Y-30096761D01*
X37738666Y-30049142D01*
%TO.C,R15*%
X57094380Y-36586857D02*
X56618190Y-36920190D01*
X57094380Y-37158285D02*
X56094380Y-37158285D01*
X56094380Y-36777333D01*
X56142000Y-36682095D01*
X56189619Y-36634476D01*
X56284857Y-36586857D01*
X56427714Y-36586857D01*
X56522952Y-36634476D01*
X56570571Y-36682095D01*
X56618190Y-36777333D01*
X56618190Y-37158285D01*
X57094380Y-35634476D02*
X57094380Y-36205904D01*
X57094380Y-35920190D02*
X56094380Y-35920190D01*
X56237238Y-36015428D01*
X56332476Y-36110666D01*
X56380095Y-36205904D01*
X56094380Y-34729714D02*
X56094380Y-35205904D01*
X56570571Y-35253523D01*
X56522952Y-35205904D01*
X56475333Y-35110666D01*
X56475333Y-34872571D01*
X56522952Y-34777333D01*
X56570571Y-34729714D01*
X56665809Y-34682095D01*
X56903904Y-34682095D01*
X56999142Y-34729714D01*
X57046761Y-34777333D01*
X57094380Y-34872571D01*
X57094380Y-35110666D01*
X57046761Y-35205904D01*
X56999142Y-35253523D01*
%TO.C,D1*%
X29552380Y-46738095D02*
X28552380Y-46738095D01*
X28552380Y-46500000D01*
X28600000Y-46357142D01*
X28695238Y-46261904D01*
X28790476Y-46214285D01*
X28980952Y-46166666D01*
X29123809Y-46166666D01*
X29314285Y-46214285D01*
X29409523Y-46261904D01*
X29504761Y-46357142D01*
X29552380Y-46500000D01*
X29552380Y-46738095D01*
X29552380Y-45214285D02*
X29552380Y-45785714D01*
X29552380Y-45500000D02*
X28552380Y-45500000D01*
X28695238Y-45595238D01*
X28790476Y-45690476D01*
X28838095Y-45785714D01*
%TO.C,R14*%
X40579142Y-55144380D02*
X40245809Y-54668190D01*
X40007714Y-55144380D02*
X40007714Y-54144380D01*
X40388666Y-54144380D01*
X40483904Y-54192000D01*
X40531523Y-54239619D01*
X40579142Y-54334857D01*
X40579142Y-54477714D01*
X40531523Y-54572952D01*
X40483904Y-54620571D01*
X40388666Y-54668190D01*
X40007714Y-54668190D01*
X41531523Y-55144380D02*
X40960095Y-55144380D01*
X41245809Y-55144380D02*
X41245809Y-54144380D01*
X41150571Y-54287238D01*
X41055333Y-54382476D01*
X40960095Y-54430095D01*
X42388666Y-54477714D02*
X42388666Y-55144380D01*
X42150571Y-54096761D02*
X41912476Y-54811047D01*
X42531523Y-54811047D01*
%TO.C,C8*%
X132509142Y-39321166D02*
X132556761Y-39368785D01*
X132604380Y-39511642D01*
X132604380Y-39606880D01*
X132556761Y-39749738D01*
X132461523Y-39844976D01*
X132366285Y-39892595D01*
X132175809Y-39940214D01*
X132032952Y-39940214D01*
X131842476Y-39892595D01*
X131747238Y-39844976D01*
X131652000Y-39749738D01*
X131604380Y-39606880D01*
X131604380Y-39511642D01*
X131652000Y-39368785D01*
X131699619Y-39321166D01*
X132032952Y-38749738D02*
X131985333Y-38844976D01*
X131937714Y-38892595D01*
X131842476Y-38940214D01*
X131794857Y-38940214D01*
X131699619Y-38892595D01*
X131652000Y-38844976D01*
X131604380Y-38749738D01*
X131604380Y-38559261D01*
X131652000Y-38464023D01*
X131699619Y-38416404D01*
X131794857Y-38368785D01*
X131842476Y-38368785D01*
X131937714Y-38416404D01*
X131985333Y-38464023D01*
X132032952Y-38559261D01*
X132032952Y-38749738D01*
X132080571Y-38844976D01*
X132128190Y-38892595D01*
X132223428Y-38940214D01*
X132413904Y-38940214D01*
X132509142Y-38892595D01*
X132556761Y-38844976D01*
X132604380Y-38749738D01*
X132604380Y-38559261D01*
X132556761Y-38464023D01*
X132509142Y-38416404D01*
X132413904Y-38368785D01*
X132223428Y-38368785D01*
X132128190Y-38416404D01*
X132080571Y-38464023D01*
X132032952Y-38559261D01*
%TO.C,C22*%
X176907142Y-69542857D02*
X176954761Y-69590476D01*
X177002380Y-69733333D01*
X177002380Y-69828571D01*
X176954761Y-69971428D01*
X176859523Y-70066666D01*
X176764285Y-70114285D01*
X176573809Y-70161904D01*
X176430952Y-70161904D01*
X176240476Y-70114285D01*
X176145238Y-70066666D01*
X176050000Y-69971428D01*
X176002380Y-69828571D01*
X176002380Y-69733333D01*
X176050000Y-69590476D01*
X176097619Y-69542857D01*
X176097619Y-69161904D02*
X176050000Y-69114285D01*
X176002380Y-69019047D01*
X176002380Y-68780952D01*
X176050000Y-68685714D01*
X176097619Y-68638095D01*
X176192857Y-68590476D01*
X176288095Y-68590476D01*
X176430952Y-68638095D01*
X177002380Y-69209523D01*
X177002380Y-68590476D01*
X176097619Y-68209523D02*
X176050000Y-68161904D01*
X176002380Y-68066666D01*
X176002380Y-67828571D01*
X176050000Y-67733333D01*
X176097619Y-67685714D01*
X176192857Y-67638095D01*
X176288095Y-67638095D01*
X176430952Y-67685714D01*
X177002380Y-68257142D01*
X177002380Y-67638095D01*
%TO.C,C21*%
X169157142Y-93107142D02*
X169109523Y-93154761D01*
X168966666Y-93202380D01*
X168871428Y-93202380D01*
X168728571Y-93154761D01*
X168633333Y-93059523D01*
X168585714Y-92964285D01*
X168538095Y-92773809D01*
X168538095Y-92630952D01*
X168585714Y-92440476D01*
X168633333Y-92345238D01*
X168728571Y-92250000D01*
X168871428Y-92202380D01*
X168966666Y-92202380D01*
X169109523Y-92250000D01*
X169157142Y-92297619D01*
X169538095Y-92297619D02*
X169585714Y-92250000D01*
X169680952Y-92202380D01*
X169919047Y-92202380D01*
X170014285Y-92250000D01*
X170061904Y-92297619D01*
X170109523Y-92392857D01*
X170109523Y-92488095D01*
X170061904Y-92630952D01*
X169490476Y-93202380D01*
X170109523Y-93202380D01*
X171061904Y-93202380D02*
X170490476Y-93202380D01*
X170776190Y-93202380D02*
X170776190Y-92202380D01*
X170680952Y-92345238D01*
X170585714Y-92440476D01*
X170490476Y-92488095D01*
%TO.C,C16*%
X151503142Y-102791142D02*
X151455523Y-102838761D01*
X151312666Y-102886380D01*
X151217428Y-102886380D01*
X151074571Y-102838761D01*
X150979333Y-102743523D01*
X150931714Y-102648285D01*
X150884095Y-102457809D01*
X150884095Y-102314952D01*
X150931714Y-102124476D01*
X150979333Y-102029238D01*
X151074571Y-101934000D01*
X151217428Y-101886380D01*
X151312666Y-101886380D01*
X151455523Y-101934000D01*
X151503142Y-101981619D01*
X152455523Y-102886380D02*
X151884095Y-102886380D01*
X152169809Y-102886380D02*
X152169809Y-101886380D01*
X152074571Y-102029238D01*
X151979333Y-102124476D01*
X151884095Y-102172095D01*
X153312666Y-101886380D02*
X153122190Y-101886380D01*
X153026952Y-101934000D01*
X152979333Y-101981619D01*
X152884095Y-102124476D01*
X152836476Y-102314952D01*
X152836476Y-102695904D01*
X152884095Y-102791142D01*
X152931714Y-102838761D01*
X153026952Y-102886380D01*
X153217428Y-102886380D01*
X153312666Y-102838761D01*
X153360285Y-102791142D01*
X153407904Y-102695904D01*
X153407904Y-102457809D01*
X153360285Y-102362571D01*
X153312666Y-102314952D01*
X153217428Y-102267333D01*
X153026952Y-102267333D01*
X152931714Y-102314952D01*
X152884095Y-102362571D01*
X152836476Y-102457809D01*
%TO.C,R24*%
X166322380Y-106492857D02*
X165846190Y-106826190D01*
X166322380Y-107064285D02*
X165322380Y-107064285D01*
X165322380Y-106683333D01*
X165370000Y-106588095D01*
X165417619Y-106540476D01*
X165512857Y-106492857D01*
X165655714Y-106492857D01*
X165750952Y-106540476D01*
X165798571Y-106588095D01*
X165846190Y-106683333D01*
X165846190Y-107064285D01*
X165417619Y-106111904D02*
X165370000Y-106064285D01*
X165322380Y-105969047D01*
X165322380Y-105730952D01*
X165370000Y-105635714D01*
X165417619Y-105588095D01*
X165512857Y-105540476D01*
X165608095Y-105540476D01*
X165750952Y-105588095D01*
X166322380Y-106159523D01*
X166322380Y-105540476D01*
X165655714Y-104683333D02*
X166322380Y-104683333D01*
X165274761Y-104921428D02*
X165989047Y-105159523D01*
X165989047Y-104540476D01*
%TO.C,C9*%
X155333333Y-120657142D02*
X155285714Y-120704761D01*
X155142857Y-120752380D01*
X155047619Y-120752380D01*
X154904761Y-120704761D01*
X154809523Y-120609523D01*
X154761904Y-120514285D01*
X154714285Y-120323809D01*
X154714285Y-120180952D01*
X154761904Y-119990476D01*
X154809523Y-119895238D01*
X154904761Y-119800000D01*
X155047619Y-119752380D01*
X155142857Y-119752380D01*
X155285714Y-119800000D01*
X155333333Y-119847619D01*
X155809523Y-120752380D02*
X156000000Y-120752380D01*
X156095238Y-120704761D01*
X156142857Y-120657142D01*
X156238095Y-120514285D01*
X156285714Y-120323809D01*
X156285714Y-119942857D01*
X156238095Y-119847619D01*
X156190476Y-119800000D01*
X156095238Y-119752380D01*
X155904761Y-119752380D01*
X155809523Y-119800000D01*
X155761904Y-119847619D01*
X155714285Y-119942857D01*
X155714285Y-120180952D01*
X155761904Y-120276190D01*
X155809523Y-120323809D01*
X155904761Y-120371428D01*
X156095238Y-120371428D01*
X156190476Y-120323809D01*
X156238095Y-120276190D01*
X156285714Y-120180952D01*
%TO.C,R12*%
X50468380Y-34454857D02*
X49992190Y-34788190D01*
X50468380Y-35026285D02*
X49468380Y-35026285D01*
X49468380Y-34645333D01*
X49516000Y-34550095D01*
X49563619Y-34502476D01*
X49658857Y-34454857D01*
X49801714Y-34454857D01*
X49896952Y-34502476D01*
X49944571Y-34550095D01*
X49992190Y-34645333D01*
X49992190Y-35026285D01*
X50468380Y-33502476D02*
X50468380Y-34073904D01*
X50468380Y-33788190D02*
X49468380Y-33788190D01*
X49611238Y-33883428D01*
X49706476Y-33978666D01*
X49754095Y-34073904D01*
X49563619Y-33121523D02*
X49516000Y-33073904D01*
X49468380Y-32978666D01*
X49468380Y-32740571D01*
X49516000Y-32645333D01*
X49563619Y-32597714D01*
X49658857Y-32550095D01*
X49754095Y-32550095D01*
X49896952Y-32597714D01*
X50468380Y-33169142D01*
X50468380Y-32550095D01*
%TO.C,C19*%
X167907142Y-106442857D02*
X167954761Y-106490476D01*
X168002380Y-106633333D01*
X168002380Y-106728571D01*
X167954761Y-106871428D01*
X167859523Y-106966666D01*
X167764285Y-107014285D01*
X167573809Y-107061904D01*
X167430952Y-107061904D01*
X167240476Y-107014285D01*
X167145238Y-106966666D01*
X167050000Y-106871428D01*
X167002380Y-106728571D01*
X167002380Y-106633333D01*
X167050000Y-106490476D01*
X167097619Y-106442857D01*
X168002380Y-105490476D02*
X168002380Y-106061904D01*
X168002380Y-105776190D02*
X167002380Y-105776190D01*
X167145238Y-105871428D01*
X167240476Y-105966666D01*
X167288095Y-106061904D01*
X168002380Y-105014285D02*
X168002380Y-104823809D01*
X167954761Y-104728571D01*
X167907142Y-104680952D01*
X167764285Y-104585714D01*
X167573809Y-104538095D01*
X167192857Y-104538095D01*
X167097619Y-104585714D01*
X167050000Y-104633333D01*
X167002380Y-104728571D01*
X167002380Y-104919047D01*
X167050000Y-105014285D01*
X167097619Y-105061904D01*
X167192857Y-105109523D01*
X167430952Y-105109523D01*
X167526190Y-105061904D01*
X167573809Y-105014285D01*
X167621428Y-104919047D01*
X167621428Y-104728571D01*
X167573809Y-104633333D01*
X167526190Y-104585714D01*
X167430952Y-104538095D01*
%TO.C,R18*%
X121864380Y-39543357D02*
X121388190Y-39876690D01*
X121864380Y-40114785D02*
X120864380Y-40114785D01*
X120864380Y-39733833D01*
X120912000Y-39638595D01*
X120959619Y-39590976D01*
X121054857Y-39543357D01*
X121197714Y-39543357D01*
X121292952Y-39590976D01*
X121340571Y-39638595D01*
X121388190Y-39733833D01*
X121388190Y-40114785D01*
X121864380Y-38590976D02*
X121864380Y-39162404D01*
X121864380Y-38876690D02*
X120864380Y-38876690D01*
X121007238Y-38971928D01*
X121102476Y-39067166D01*
X121150095Y-39162404D01*
X121292952Y-38019547D02*
X121245333Y-38114785D01*
X121197714Y-38162404D01*
X121102476Y-38210023D01*
X121054857Y-38210023D01*
X120959619Y-38162404D01*
X120912000Y-38114785D01*
X120864380Y-38019547D01*
X120864380Y-37829071D01*
X120912000Y-37733833D01*
X120959619Y-37686214D01*
X121054857Y-37638595D01*
X121102476Y-37638595D01*
X121197714Y-37686214D01*
X121245333Y-37733833D01*
X121292952Y-37829071D01*
X121292952Y-38019547D01*
X121340571Y-38114785D01*
X121388190Y-38162404D01*
X121483428Y-38210023D01*
X121673904Y-38210023D01*
X121769142Y-38162404D01*
X121816761Y-38114785D01*
X121864380Y-38019547D01*
X121864380Y-37829071D01*
X121816761Y-37733833D01*
X121769142Y-37686214D01*
X121673904Y-37638595D01*
X121483428Y-37638595D01*
X121388190Y-37686214D01*
X121340571Y-37733833D01*
X121292952Y-37829071D01*
%TO.C,R21*%
X154557142Y-127552380D02*
X154223809Y-127076190D01*
X153985714Y-127552380D02*
X153985714Y-126552380D01*
X154366666Y-126552380D01*
X154461904Y-126600000D01*
X154509523Y-126647619D01*
X154557142Y-126742857D01*
X154557142Y-126885714D01*
X154509523Y-126980952D01*
X154461904Y-127028571D01*
X154366666Y-127076190D01*
X153985714Y-127076190D01*
X154938095Y-126647619D02*
X154985714Y-126600000D01*
X155080952Y-126552380D01*
X155319047Y-126552380D01*
X155414285Y-126600000D01*
X155461904Y-126647619D01*
X155509523Y-126742857D01*
X155509523Y-126838095D01*
X155461904Y-126980952D01*
X154890476Y-127552380D01*
X155509523Y-127552380D01*
X156461904Y-127552380D02*
X155890476Y-127552380D01*
X156176190Y-127552380D02*
X156176190Y-126552380D01*
X156080952Y-126695238D01*
X155985714Y-126790476D01*
X155890476Y-126838095D01*
%TO.C,J10*%
X176477380Y-73106523D02*
X177191666Y-73106523D01*
X177334523Y-73154142D01*
X177429761Y-73249380D01*
X177477380Y-73392238D01*
X177477380Y-73487476D01*
X177477380Y-72106523D02*
X177477380Y-72677952D01*
X177477380Y-72392238D02*
X176477380Y-72392238D01*
X176620238Y-72487476D01*
X176715476Y-72582714D01*
X176763095Y-72677952D01*
X176477380Y-71487476D02*
X176477380Y-71392238D01*
X176525000Y-71297000D01*
X176572619Y-71249380D01*
X176667857Y-71201761D01*
X176858333Y-71154142D01*
X177096428Y-71154142D01*
X177286904Y-71201761D01*
X177382142Y-71249380D01*
X177429761Y-71297000D01*
X177477380Y-71392238D01*
X177477380Y-71487476D01*
X177429761Y-71582714D01*
X177382142Y-71630333D01*
X177286904Y-71677952D01*
X177096428Y-71725571D01*
X176858333Y-71725571D01*
X176667857Y-71677952D01*
X176572619Y-71630333D01*
X176525000Y-71582714D01*
X176477380Y-71487476D01*
%TO.C,J8*%
X170066666Y-76652380D02*
X170066666Y-77366666D01*
X170019047Y-77509523D01*
X169923809Y-77604761D01*
X169780952Y-77652380D01*
X169685714Y-77652380D01*
X170685714Y-77080952D02*
X170590476Y-77033333D01*
X170542857Y-76985714D01*
X170495238Y-76890476D01*
X170495238Y-76842857D01*
X170542857Y-76747619D01*
X170590476Y-76700000D01*
X170685714Y-76652380D01*
X170876190Y-76652380D01*
X170971428Y-76700000D01*
X171019047Y-76747619D01*
X171066666Y-76842857D01*
X171066666Y-76890476D01*
X171019047Y-76985714D01*
X170971428Y-77033333D01*
X170876190Y-77080952D01*
X170685714Y-77080952D01*
X170590476Y-77128571D01*
X170542857Y-77176190D01*
X170495238Y-77271428D01*
X170495238Y-77461904D01*
X170542857Y-77557142D01*
X170590476Y-77604761D01*
X170685714Y-77652380D01*
X170876190Y-77652380D01*
X170971428Y-77604761D01*
X171019047Y-77557142D01*
X171066666Y-77461904D01*
X171066666Y-77271428D01*
X171019047Y-77176190D01*
X170971428Y-77128571D01*
X170876190Y-77080952D01*
X178014380Y-87722500D02*
X178252476Y-87722500D01*
X178157238Y-87960595D02*
X178252476Y-87722500D01*
X178157238Y-87484404D01*
X178442952Y-87865357D02*
X178252476Y-87722500D01*
X178442952Y-87579642D01*
%TO.C,C18*%
X157599142Y-112443142D02*
X157551523Y-112490761D01*
X157408666Y-112538380D01*
X157313428Y-112538380D01*
X157170571Y-112490761D01*
X157075333Y-112395523D01*
X157027714Y-112300285D01*
X156980095Y-112109809D01*
X156980095Y-111966952D01*
X157027714Y-111776476D01*
X157075333Y-111681238D01*
X157170571Y-111586000D01*
X157313428Y-111538380D01*
X157408666Y-111538380D01*
X157551523Y-111586000D01*
X157599142Y-111633619D01*
X158551523Y-112538380D02*
X157980095Y-112538380D01*
X158265809Y-112538380D02*
X158265809Y-111538380D01*
X158170571Y-111681238D01*
X158075333Y-111776476D01*
X157980095Y-111824095D01*
X159122952Y-111966952D02*
X159027714Y-111919333D01*
X158980095Y-111871714D01*
X158932476Y-111776476D01*
X158932476Y-111728857D01*
X158980095Y-111633619D01*
X159027714Y-111586000D01*
X159122952Y-111538380D01*
X159313428Y-111538380D01*
X159408666Y-111586000D01*
X159456285Y-111633619D01*
X159503904Y-111728857D01*
X159503904Y-111776476D01*
X159456285Y-111871714D01*
X159408666Y-111919333D01*
X159313428Y-111966952D01*
X159122952Y-111966952D01*
X159027714Y-112014571D01*
X158980095Y-112062190D01*
X158932476Y-112157428D01*
X158932476Y-112347904D01*
X158980095Y-112443142D01*
X159027714Y-112490761D01*
X159122952Y-112538380D01*
X159313428Y-112538380D01*
X159408666Y-112490761D01*
X159456285Y-112443142D01*
X159503904Y-112347904D01*
X159503904Y-112157428D01*
X159456285Y-112062190D01*
X159408666Y-112014571D01*
X159313428Y-111966952D01*
%TO.C,D5*%
X110161904Y-24852380D02*
X110161904Y-23852380D01*
X110400000Y-23852380D01*
X110542857Y-23900000D01*
X110638095Y-23995238D01*
X110685714Y-24090476D01*
X110733333Y-24280952D01*
X110733333Y-24423809D01*
X110685714Y-24614285D01*
X110638095Y-24709523D01*
X110542857Y-24804761D01*
X110400000Y-24852380D01*
X110161904Y-24852380D01*
X111638095Y-23852380D02*
X111161904Y-23852380D01*
X111114285Y-24328571D01*
X111161904Y-24280952D01*
X111257142Y-24233333D01*
X111495238Y-24233333D01*
X111590476Y-24280952D01*
X111638095Y-24328571D01*
X111685714Y-24423809D01*
X111685714Y-24661904D01*
X111638095Y-24757142D01*
X111590476Y-24804761D01*
X111495238Y-24852380D01*
X111257142Y-24852380D01*
X111161904Y-24804761D01*
X111114285Y-24757142D01*
%TO.C,TP2*%
X148638095Y-57754380D02*
X149209523Y-57754380D01*
X148923809Y-58754380D02*
X148923809Y-57754380D01*
X149542857Y-58754380D02*
X149542857Y-57754380D01*
X149923809Y-57754380D01*
X150019047Y-57802000D01*
X150066666Y-57849619D01*
X150114285Y-57944857D01*
X150114285Y-58087714D01*
X150066666Y-58182952D01*
X150019047Y-58230571D01*
X149923809Y-58278190D01*
X149542857Y-58278190D01*
X150495238Y-57849619D02*
X150542857Y-57802000D01*
X150638095Y-57754380D01*
X150876190Y-57754380D01*
X150971428Y-57802000D01*
X151019047Y-57849619D01*
X151066666Y-57944857D01*
X151066666Y-58040095D01*
X151019047Y-58182952D01*
X150447619Y-58754380D01*
X151066666Y-58754380D01*
%TO.C,U4*%
X125984095Y-40752880D02*
X125984095Y-41562404D01*
X126031714Y-41657642D01*
X126079333Y-41705261D01*
X126174571Y-41752880D01*
X126365047Y-41752880D01*
X126460285Y-41705261D01*
X126507904Y-41657642D01*
X126555523Y-41562404D01*
X126555523Y-40752880D01*
X127460285Y-41086214D02*
X127460285Y-41752880D01*
X127222190Y-40705261D02*
X126984095Y-41419547D01*
X127603142Y-41419547D01*
%TO.C,U2*%
X40894095Y-35520380D02*
X40894095Y-36329904D01*
X40941714Y-36425142D01*
X40989333Y-36472761D01*
X41084571Y-36520380D01*
X41275047Y-36520380D01*
X41370285Y-36472761D01*
X41417904Y-36425142D01*
X41465523Y-36329904D01*
X41465523Y-35520380D01*
X41894095Y-35615619D02*
X41941714Y-35568000D01*
X42036952Y-35520380D01*
X42275047Y-35520380D01*
X42370285Y-35568000D01*
X42417904Y-35615619D01*
X42465523Y-35710857D01*
X42465523Y-35806095D01*
X42417904Y-35948952D01*
X41846476Y-36520380D01*
X42465523Y-36520380D01*
%TO.C,U9*%
X142371476Y-93477904D02*
X142371476Y-94125523D01*
X142409571Y-94201714D01*
X142447666Y-94239809D01*
X142523857Y-94277904D01*
X142676238Y-94277904D01*
X142752428Y-94239809D01*
X142790523Y-94201714D01*
X142828619Y-94125523D01*
X142828619Y-93477904D01*
X143247666Y-94277904D02*
X143400047Y-94277904D01*
X143476238Y-94239809D01*
X143514333Y-94201714D01*
X143590523Y-94087428D01*
X143628619Y-93935047D01*
X143628619Y-93630285D01*
X143590523Y-93554095D01*
X143552428Y-93516000D01*
X143476238Y-93477904D01*
X143323857Y-93477904D01*
X143247666Y-93516000D01*
X143209571Y-93554095D01*
X143171476Y-93630285D01*
X143171476Y-93820761D01*
X143209571Y-93896952D01*
X143247666Y-93935047D01*
X143323857Y-93973142D01*
X143476238Y-93973142D01*
X143552428Y-93935047D01*
X143590523Y-93896952D01*
X143628619Y-93820761D01*
%TO.C,C2*%
X34605333Y-41049142D02*
X34557714Y-41096761D01*
X34414857Y-41144380D01*
X34319619Y-41144380D01*
X34176761Y-41096761D01*
X34081523Y-41001523D01*
X34033904Y-40906285D01*
X33986285Y-40715809D01*
X33986285Y-40572952D01*
X34033904Y-40382476D01*
X34081523Y-40287238D01*
X34176761Y-40192000D01*
X34319619Y-40144380D01*
X34414857Y-40144380D01*
X34557714Y-40192000D01*
X34605333Y-40239619D01*
X34986285Y-40239619D02*
X35033904Y-40192000D01*
X35129142Y-40144380D01*
X35367238Y-40144380D01*
X35462476Y-40192000D01*
X35510095Y-40239619D01*
X35557714Y-40334857D01*
X35557714Y-40430095D01*
X35510095Y-40572952D01*
X34938666Y-41144380D01*
X35557714Y-41144380D01*
%TO.C,U5*%
X165850595Y-39452380D02*
X165850595Y-40261904D01*
X165898214Y-40357142D01*
X165945833Y-40404761D01*
X166041071Y-40452380D01*
X166231547Y-40452380D01*
X166326785Y-40404761D01*
X166374404Y-40357142D01*
X166422023Y-40261904D01*
X166422023Y-39452380D01*
X167374404Y-39452380D02*
X166898214Y-39452380D01*
X166850595Y-39928571D01*
X166898214Y-39880952D01*
X166993452Y-39833333D01*
X167231547Y-39833333D01*
X167326785Y-39880952D01*
X167374404Y-39928571D01*
X167422023Y-40023809D01*
X167422023Y-40261904D01*
X167374404Y-40357142D01*
X167326785Y-40404761D01*
X167231547Y-40452380D01*
X166993452Y-40452380D01*
X166898214Y-40404761D01*
X166850595Y-40357142D01*
%TO.C,C6*%
X36495333Y-38587142D02*
X36447714Y-38634761D01*
X36304857Y-38682380D01*
X36209619Y-38682380D01*
X36066761Y-38634761D01*
X35971523Y-38539523D01*
X35923904Y-38444285D01*
X35876285Y-38253809D01*
X35876285Y-38110952D01*
X35923904Y-37920476D01*
X35971523Y-37825238D01*
X36066761Y-37730000D01*
X36209619Y-37682380D01*
X36304857Y-37682380D01*
X36447714Y-37730000D01*
X36495333Y-37777619D01*
X37352476Y-37682380D02*
X37162000Y-37682380D01*
X37066761Y-37730000D01*
X37019142Y-37777619D01*
X36923904Y-37920476D01*
X36876285Y-38110952D01*
X36876285Y-38491904D01*
X36923904Y-38587142D01*
X36971523Y-38634761D01*
X37066761Y-38682380D01*
X37257238Y-38682380D01*
X37352476Y-38634761D01*
X37400095Y-38587142D01*
X37447714Y-38491904D01*
X37447714Y-38253809D01*
X37400095Y-38158571D01*
X37352476Y-38110952D01*
X37257238Y-38063333D01*
X37066761Y-38063333D01*
X36971523Y-38110952D01*
X36923904Y-38158571D01*
X36876285Y-38253809D01*
%TO.C,J3*%
X166734916Y-31817880D02*
X166734916Y-32532166D01*
X166687297Y-32675023D01*
X166592059Y-32770261D01*
X166449202Y-32817880D01*
X166353964Y-32817880D01*
X167115869Y-31817880D02*
X167734916Y-31817880D01*
X167401583Y-32198833D01*
X167544440Y-32198833D01*
X167639678Y-32246452D01*
X167687297Y-32294071D01*
X167734916Y-32389309D01*
X167734916Y-32627404D01*
X167687297Y-32722642D01*
X167639678Y-32770261D01*
X167544440Y-32817880D01*
X167258726Y-32817880D01*
X167163488Y-32770261D01*
X167115869Y-32722642D01*
D14*
%TO.C,J5*%
X125298773Y-18722260D02*
X125298773Y-19437035D01*
X125251121Y-19579990D01*
X125155818Y-19675294D01*
X125012863Y-19722945D01*
X124917560Y-19722945D01*
X126251806Y-18722260D02*
X125775290Y-18722260D01*
X125727638Y-19198777D01*
X125775290Y-19151125D01*
X125870593Y-19103474D01*
X126108851Y-19103474D01*
X126204155Y-19151125D01*
X126251806Y-19198777D01*
X126299458Y-19294080D01*
X126299458Y-19532339D01*
X126251806Y-19627642D01*
X126204155Y-19675294D01*
X126108851Y-19722945D01*
X125870593Y-19722945D01*
X125775290Y-19675294D01*
X125727638Y-19627642D01*
D11*
%TO.C,L1*%
X52105333Y-47444380D02*
X51629142Y-47444380D01*
X51629142Y-46444380D01*
X52962476Y-47444380D02*
X52391047Y-47444380D01*
X52676761Y-47444380D02*
X52676761Y-46444380D01*
X52581523Y-46587238D01*
X52486285Y-46682476D01*
X52391047Y-46730095D01*
X51002380Y-42500000D02*
X51240476Y-42500000D01*
X51145238Y-42738095D02*
X51240476Y-42500000D01*
X51145238Y-42261904D01*
X51430952Y-42642857D02*
X51240476Y-42500000D01*
X51430952Y-42357142D01*
%TO.C,C20*%
X150357142Y-38257142D02*
X150309523Y-38304761D01*
X150166666Y-38352380D01*
X150071428Y-38352380D01*
X149928571Y-38304761D01*
X149833333Y-38209523D01*
X149785714Y-38114285D01*
X149738095Y-37923809D01*
X149738095Y-37780952D01*
X149785714Y-37590476D01*
X149833333Y-37495238D01*
X149928571Y-37400000D01*
X150071428Y-37352380D01*
X150166666Y-37352380D01*
X150309523Y-37400000D01*
X150357142Y-37447619D01*
X150738095Y-37447619D02*
X150785714Y-37400000D01*
X150880952Y-37352380D01*
X151119047Y-37352380D01*
X151214285Y-37400000D01*
X151261904Y-37447619D01*
X151309523Y-37542857D01*
X151309523Y-37638095D01*
X151261904Y-37780952D01*
X150690476Y-38352380D01*
X151309523Y-38352380D01*
X151928571Y-37352380D02*
X152023809Y-37352380D01*
X152119047Y-37400000D01*
X152166666Y-37447619D01*
X152214285Y-37542857D01*
X152261904Y-37733333D01*
X152261904Y-37971428D01*
X152214285Y-38161904D01*
X152166666Y-38257142D01*
X152119047Y-38304761D01*
X152023809Y-38352380D01*
X151928571Y-38352380D01*
X151833333Y-38304761D01*
X151785714Y-38257142D01*
X151738095Y-38161904D01*
X151690476Y-37971428D01*
X151690476Y-37733333D01*
X151738095Y-37542857D01*
X151785714Y-37447619D01*
X151833333Y-37400000D01*
X151928571Y-37352380D01*
D13*
%TO.C,C4*%
X45660748Y-53602000D02*
X47083252Y-53602000D01*
X45660748Y-51782000D02*
X47083252Y-51782000D01*
%TO.C,C13*%
X155588748Y-81240000D02*
X157011252Y-81240000D01*
X155588748Y-83060000D02*
X157011252Y-83060000D01*
%TO.C,R20*%
X158572936Y-114810000D02*
X160027064Y-114810000D01*
X158572936Y-112990000D02*
X160027064Y-112990000D01*
%TO.C,D2*%
X32035000Y-53960000D02*
X32035000Y-49900000D01*
X29765000Y-49900000D02*
X29765000Y-53960000D01*
X29765000Y-53960000D02*
X32035000Y-53960000D01*
%TO.C,C23*%
X146340000Y-89861252D02*
X146340000Y-88438748D01*
X148160000Y-89861252D02*
X148160000Y-88438748D01*
%TO.C,D6*%
X115440000Y-25065000D02*
X115440000Y-27335000D01*
X119500000Y-25065000D02*
X115440000Y-25065000D01*
X115440000Y-27335000D02*
X119500000Y-27335000D01*
%TO.C,R1*%
X46899064Y-39002000D02*
X45444936Y-39002000D01*
X46899064Y-37182000D02*
X45444936Y-37182000D01*
D15*
%TO.C,J1*%
X48031000Y-20479000D02*
X39091000Y-20479000D01*
X48031000Y-21629000D02*
X48031000Y-20479000D01*
X39091000Y-20479000D02*
X39091000Y-21629000D01*
D13*
%TO.C,U8*%
X161594800Y-87471560D02*
X161594800Y-86563200D01*
X160686440Y-96824800D02*
X161594800Y-96824800D01*
X161594800Y-86563200D02*
X160686440Y-86563200D01*
X161594800Y-96824800D02*
X161594800Y-95916440D01*
X152241560Y-86563200D02*
X151333200Y-86563200D01*
X151333200Y-95916440D02*
X151333200Y-96824800D01*
X151333200Y-96824800D02*
X152241560Y-96824800D01*
X151333200Y-86563200D02*
X151333200Y-87471560D01*
D16*
X153404499Y-98298000D02*
X153404499Y-98552000D01*
X153404499Y-98552000D02*
X153023499Y-98552000D01*
X153023499Y-98552000D02*
X153023499Y-98298000D01*
X153023499Y-98298000D02*
X153404499Y-98298000D01*
G36*
X153404499Y-98552000D02*
G01*
X153023499Y-98552000D01*
X153023499Y-98298000D01*
X153404499Y-98298000D01*
X153404499Y-98552000D01*
G37*
X153404499Y-98552000D02*
X153023499Y-98552000D01*
X153023499Y-98298000D01*
X153404499Y-98298000D01*
X153404499Y-98552000D01*
X158404499Y-98298000D02*
X158404499Y-98552000D01*
X158404499Y-98552000D02*
X158023499Y-98552000D01*
X158023499Y-98552000D02*
X158023499Y-98298000D01*
X158023499Y-98298000D02*
X158404499Y-98298000D01*
G36*
X158404499Y-98552000D02*
G01*
X158023499Y-98552000D01*
X158023499Y-98298000D01*
X158404499Y-98298000D01*
X158404499Y-98552000D01*
G37*
X158404499Y-98552000D02*
X158023499Y-98552000D01*
X158023499Y-98298000D01*
X158404499Y-98298000D01*
X158404499Y-98552000D01*
X153904500Y-85090000D02*
X153904500Y-84836000D01*
X153904500Y-84836000D02*
X153523500Y-84836000D01*
X153523500Y-84836000D02*
X153523500Y-85090000D01*
X153523500Y-85090000D02*
X153904500Y-85090000D01*
G36*
X153904500Y-85090000D02*
G01*
X153523500Y-85090000D01*
X153523500Y-84836000D01*
X153904500Y-84836000D01*
X153904500Y-85090000D01*
G37*
X153904500Y-85090000D02*
X153523500Y-85090000D01*
X153523500Y-84836000D01*
X153904500Y-84836000D01*
X153904500Y-85090000D01*
X163322000Y-91134499D02*
X163322000Y-90753499D01*
X163322000Y-90753499D02*
X163068000Y-90753499D01*
X163068000Y-90753499D02*
X163068000Y-91134499D01*
X163068000Y-91134499D02*
X163322000Y-91134499D01*
G36*
X163322000Y-91134499D02*
G01*
X163068000Y-91134499D01*
X163068000Y-90753499D01*
X163322000Y-90753499D01*
X163322000Y-91134499D01*
G37*
X163322000Y-91134499D02*
X163068000Y-91134499D01*
X163068000Y-90753499D01*
X163322000Y-90753499D01*
X163322000Y-91134499D01*
X158904501Y-85090000D02*
X158904501Y-84836000D01*
X158904501Y-84836000D02*
X158523501Y-84836000D01*
X158523501Y-84836000D02*
X158523501Y-85090000D01*
X158523501Y-85090000D02*
X158904501Y-85090000D01*
G36*
X158904501Y-85090000D02*
G01*
X158523501Y-85090000D01*
X158523501Y-84836000D01*
X158904501Y-84836000D01*
X158904501Y-85090000D01*
G37*
X158904501Y-85090000D02*
X158523501Y-85090000D01*
X158523501Y-84836000D01*
X158904501Y-84836000D01*
X158904501Y-85090000D01*
X149606000Y-91634501D02*
X149606000Y-91253500D01*
X149606000Y-91253500D02*
X149860000Y-91253500D01*
X149860000Y-91253500D02*
X149860000Y-91634501D01*
X149860000Y-91634501D02*
X149606000Y-91634501D01*
G36*
X149860000Y-91634501D02*
G01*
X149606000Y-91634501D01*
X149606000Y-91253500D01*
X149860000Y-91253500D01*
X149860000Y-91634501D01*
G37*
X149860000Y-91634501D02*
X149606000Y-91634501D01*
X149606000Y-91253500D01*
X149860000Y-91253500D01*
X149860000Y-91634501D01*
D13*
%TO.C,R10*%
X39081064Y-31224000D02*
X37626936Y-31224000D01*
X39081064Y-33044000D02*
X37626936Y-33044000D01*
%TO.C,R17*%
X110122936Y-32160000D02*
X111577064Y-32160000D01*
X110122936Y-30340000D02*
X111577064Y-30340000D01*
%TO.C,R2*%
X45444936Y-41402000D02*
X46899064Y-41402000D01*
X45444936Y-39582000D02*
X46899064Y-39582000D01*
%TO.C,U3*%
X118556000Y-33130000D02*
X116656000Y-33130000D01*
X117156000Y-35450000D02*
X118556000Y-35450000D01*
%TO.C,R3*%
X37932000Y-26619064D02*
X37932000Y-25164936D01*
X36112000Y-26619064D02*
X36112000Y-25164936D01*
D16*
%TO.C,J6*%
X169204000Y-127330000D02*
X163594000Y-127330000D01*
X169204000Y-111430000D02*
X169204000Y-111430000D01*
X163594000Y-111430000D02*
X163594000Y-127330000D01*
X179954000Y-127330000D02*
X184894000Y-127330000D01*
X163594000Y-111430000D02*
X163594000Y-111430000D01*
X163594000Y-127330000D02*
X163594000Y-111430000D01*
X184894000Y-127330000D02*
X184894000Y-127330000D01*
X163594000Y-127330000D02*
X163594000Y-127330000D01*
X169204000Y-127330000D02*
X169204000Y-127330000D01*
X163594000Y-111430000D02*
X169204000Y-111430000D01*
X169204000Y-111430000D02*
X163594000Y-111430000D01*
X184894000Y-127330000D02*
X184894000Y-127330000D01*
X184894000Y-127330000D02*
X184894000Y-111505000D01*
X179954000Y-127330000D02*
X179954000Y-127330000D01*
X184894000Y-111430000D02*
X179954000Y-111430000D01*
X184894000Y-111505000D02*
X184894000Y-127330000D01*
X184894000Y-127330000D02*
X179954000Y-127330000D01*
X184894000Y-111505000D02*
X184894000Y-111505000D01*
X179954000Y-111430000D02*
X179954000Y-111430000D01*
X163594000Y-127330000D02*
X169204000Y-127330000D01*
X179954000Y-111430000D02*
X184894000Y-111430000D01*
X184894000Y-111430000D02*
X184894000Y-111430000D01*
X163594000Y-127330000D02*
X163594000Y-127330000D01*
X163594000Y-111430000D02*
X163594000Y-111430000D01*
D13*
%TO.C,R16*%
X55774000Y-30136936D02*
X55774000Y-31591064D01*
X53954000Y-30136936D02*
X53954000Y-31591064D01*
%TO.C,Y1*%
X148748000Y-103622000D02*
X148748000Y-108722000D01*
X161348000Y-103622000D02*
X148748000Y-103622000D01*
X148748000Y-108722000D02*
X161348000Y-108722000D01*
%TO.C,C12*%
X161340000Y-84261252D02*
X161340000Y-82838748D01*
X163160000Y-84261252D02*
X163160000Y-82838748D01*
D15*
%TO.C,J4*%
X185560000Y-20536000D02*
X183410000Y-20536000D01*
X185560000Y-47536000D02*
X185560000Y-20536000D01*
X183410000Y-47536000D02*
X185560000Y-47536000D01*
X177660000Y-24536000D02*
G75*
G03*
X177660000Y-24536000I-100000J0D01*
G01*
D13*
%TO.C,R25*%
X145660000Y-88827064D02*
X145660000Y-87372936D01*
X143840000Y-88827064D02*
X143840000Y-87372936D01*
%TO.C,D3*%
X59565000Y-34600000D02*
X59565000Y-38660000D01*
X59565000Y-38660000D02*
X61835000Y-38660000D01*
X61835000Y-38660000D02*
X61835000Y-34600000D01*
%TO.C,J9*%
X152505200Y-34544000D02*
X152505200Y-26265406D01*
X152505200Y-23178595D02*
X152505200Y-20320000D01*
X152505200Y-20320000D02*
X137747800Y-20320000D01*
X137747800Y-34544000D02*
X152505200Y-34544000D01*
X137747800Y-20320000D02*
X137747800Y-23178595D01*
X137747800Y-26265406D02*
X137747800Y-34544000D01*
X154664200Y-27432000D02*
G75*
G03*
X154664200Y-27432000I-381000J0D01*
G01*
%TO.C,CM4*%
X71374882Y-34106000D02*
X71374882Y-35106000D01*
X66444882Y-24006000D02*
X66444882Y-72006000D01*
X71374882Y-56906000D02*
X71374882Y-55906000D01*
X67594882Y-56906000D02*
X67594882Y-55906000D01*
X105294882Y-34106000D02*
X105294882Y-35106000D01*
X105294882Y-56906000D02*
X101514882Y-56906000D01*
X71374882Y-34106000D02*
X67594882Y-34106000D01*
X105294882Y-34106000D02*
X101514882Y-34106000D01*
X102944882Y-20506000D02*
X69944882Y-20506000D01*
X69944882Y-75506000D02*
X102944882Y-75506000D01*
X101514882Y-34106000D02*
X101514882Y-35106000D01*
X67594882Y-34106000D02*
X67594882Y-35106000D01*
X71374882Y-56906000D02*
X67594882Y-56906000D01*
X106444882Y-72006000D02*
X106444882Y-24006000D01*
X69944882Y-75506000D02*
G75*
G02*
X66444882Y-72006000I0J3500000D01*
G01*
X102944882Y-20506000D02*
G75*
G02*
X106444882Y-24006000I0J-3500000D01*
G01*
X106444882Y-72006000D02*
G75*
G02*
X102944882Y-75506000I-3500000J0D01*
G01*
X66444882Y-24006000D02*
G75*
G02*
X69944882Y-20506000I3500000J0D01*
G01*
%TO.C,R4*%
X51182000Y-26619064D02*
X51182000Y-25164936D01*
X49362000Y-26619064D02*
X49362000Y-25164936D01*
%TO.C,C7*%
X163610000Y-39676248D02*
X163610000Y-41098752D01*
X161790000Y-39676248D02*
X161790000Y-41098752D01*
%TO.C,R23*%
X148809064Y-83418000D02*
X147354936Y-83418000D01*
X148809064Y-85238000D02*
X147354936Y-85238000D01*
%TO.C,C11*%
X149910000Y-98538748D02*
X149910000Y-99961252D01*
X148090000Y-98538748D02*
X148090000Y-99961252D01*
%TO.C,U6*%
X160300000Y-125000000D02*
X161600000Y-125000000D01*
X160300000Y-122200000D02*
X161300000Y-122200000D01*
%TO.C,J2*%
X58403000Y-53597000D02*
X61197000Y-53597000D01*
X58403000Y-48263000D02*
X58403000Y-53597000D01*
X61197000Y-53597000D02*
X61197000Y-48263000D01*
X61197000Y-48263000D02*
X58403000Y-48263000D01*
X60181000Y-55375000D02*
G75*
G03*
X60181000Y-55375000I-381000J0D01*
G01*
%TO.C,R5*%
X43282000Y-40019064D02*
X43282000Y-38564936D01*
X41462000Y-40019064D02*
X41462000Y-38564936D01*
%TO.C,J7*%
X171450000Y-93297800D02*
X171450000Y-108055200D01*
X179728594Y-93297800D02*
X171450000Y-93297800D01*
X171450000Y-108055200D02*
X179728594Y-108055200D01*
X185674000Y-93297800D02*
X182815405Y-93297800D01*
X182815405Y-108055200D02*
X185674000Y-108055200D01*
X185674000Y-108055200D02*
X185674000Y-93297800D01*
X178943000Y-109833200D02*
G75*
G03*
X178943000Y-109833200I-381000J0D01*
G01*
%TO.C,C1*%
X52083252Y-39582000D02*
X50660748Y-39582000D01*
X52083252Y-41402000D02*
X50660748Y-41402000D01*
%TO.C,C17*%
X151942748Y-111146000D02*
X153365252Y-111146000D01*
X151942748Y-109326000D02*
X153365252Y-109326000D01*
%TO.C,R7*%
X41899064Y-51078000D02*
X40444936Y-51078000D01*
X41899064Y-49258000D02*
X40444936Y-49258000D01*
%TO.C,TP1*%
X62000000Y-59000000D02*
X62000000Y-63400000D01*
X57600000Y-59000000D02*
X62000000Y-59000000D01*
X57600000Y-63400000D02*
X57600000Y-59000000D01*
X62000000Y-63400000D02*
X57600000Y-63400000D01*
%TO.C,C14*%
X164260000Y-98538748D02*
X164260000Y-99961252D01*
X162440000Y-98538748D02*
X162440000Y-99961252D01*
%TO.C,U7*%
X160300000Y-118500000D02*
X161600000Y-118500000D01*
X160300000Y-115700000D02*
X161300000Y-115700000D01*
%TO.C,D4*%
X61841000Y-28327500D02*
X59571000Y-28327500D01*
X61841000Y-32387500D02*
X61841000Y-28327500D01*
X59571000Y-28327500D02*
X59571000Y-32387500D01*
%TO.C,R19*%
X118583064Y-32152000D02*
X117128936Y-32152000D01*
X118583064Y-30332000D02*
X117128936Y-30332000D01*
%TO.C,C10*%
X155576248Y-78640000D02*
X156998752Y-78640000D01*
X155576248Y-80460000D02*
X156998752Y-80460000D01*
%TO.C,C5*%
X45660748Y-51002000D02*
X47083252Y-51002000D01*
X45660748Y-49182000D02*
X47083252Y-49182000D01*
%TO.C,R11*%
X47206000Y-34689064D02*
X47206000Y-33234936D01*
X49026000Y-34689064D02*
X49026000Y-33234936D01*
%TO.C,R8*%
X36499064Y-49258000D02*
X35044936Y-49258000D01*
X36499064Y-51078000D02*
X35044936Y-51078000D01*
%TO.C,R13*%
X46749064Y-28732000D02*
X45294936Y-28732000D01*
X46749064Y-30552000D02*
X45294936Y-30552000D01*
%TO.C,R6*%
X36795064Y-46782000D02*
X35340936Y-46782000D01*
X36795064Y-48602000D02*
X35340936Y-48602000D01*
%TO.C,C15*%
X158546748Y-99674000D02*
X159969252Y-99674000D01*
X158546748Y-101494000D02*
X159969252Y-101494000D01*
D17*
%TO.C,U1*%
X45322000Y-43562000D02*
X45322000Y-42842000D01*
X45322000Y-42842000D02*
X44602000Y-42842000D01*
X41222000Y-42842000D02*
X41222000Y-43562000D01*
X45322000Y-46942000D02*
X45322000Y-46222000D01*
X44602000Y-46942000D02*
X45322000Y-46942000D01*
X41222000Y-46222000D02*
X41222000Y-46942000D01*
X41942000Y-42842000D02*
X41222000Y-42842000D01*
X41222000Y-46942000D02*
X41942000Y-46942000D01*
D15*
X42172000Y-47892000D02*
G75*
G03*
X42172000Y-47892000I-100000J0D01*
G01*
D13*
%TO.C,R9*%
X50344936Y-28732000D02*
X51799064Y-28732000D01*
X50344936Y-30552000D02*
X51799064Y-30552000D01*
%TO.C,R22*%
X148809064Y-82444000D02*
X147354936Y-82444000D01*
X148809064Y-80624000D02*
X147354936Y-80624000D01*
D17*
%TO.C,B1*%
X35050000Y-38950000D02*
X27450000Y-38950000D01*
X27450000Y-33050000D02*
X35050000Y-33050000D01*
X27450000Y-38950000D02*
X27450000Y-33050000D01*
X35050000Y-33050000D02*
X35050000Y-38950000D01*
D15*
X35700000Y-35000000D02*
G75*
G03*
X35700000Y-35000000I-100000J0D01*
G01*
D13*
%TO.C,C3*%
X41733252Y-28732000D02*
X40310748Y-28732000D01*
X41733252Y-30552000D02*
X40310748Y-30552000D01*
%TO.C,R15*%
X53954000Y-36925064D02*
X53954000Y-35470936D01*
X55774000Y-36925064D02*
X55774000Y-35470936D01*
%TO.C,D1*%
X32035000Y-43540000D02*
X29765000Y-43540000D01*
X29765000Y-43540000D02*
X29765000Y-47600000D01*
X32035000Y-47600000D02*
X32035000Y-43540000D01*
%TO.C,R14*%
X40494936Y-53602000D02*
X41949064Y-53602000D01*
X40494936Y-51782000D02*
X41949064Y-51782000D01*
%TO.C,C8*%
X131212000Y-38443248D02*
X131212000Y-39865752D01*
X129392000Y-38443248D02*
X129392000Y-39865752D01*
%TO.C,C22*%
X175610000Y-68188748D02*
X175610000Y-69611252D01*
X173790000Y-68188748D02*
X173790000Y-69611252D01*
%TO.C,C21*%
X168790000Y-88788748D02*
X168790000Y-90211252D01*
X170610000Y-88788748D02*
X170610000Y-90211252D01*
%TO.C,C16*%
X154127252Y-99674000D02*
X152704748Y-99674000D01*
X154127252Y-101494000D02*
X152704748Y-101494000D01*
%TO.C,R24*%
X163140000Y-105122936D02*
X163140000Y-106577064D01*
X164960000Y-105122936D02*
X164960000Y-106577064D01*
%TO.C,C9*%
X159911252Y-121110000D02*
X158488748Y-121110000D01*
X159911252Y-119290000D02*
X158488748Y-119290000D01*
%TO.C,R12*%
X50906000Y-34639064D02*
X50906000Y-33184936D01*
X52726000Y-34639064D02*
X52726000Y-33184936D01*
%TO.C,C19*%
X170310000Y-105238748D02*
X170310000Y-106661252D01*
X168490000Y-105238748D02*
X168490000Y-106661252D01*
%TO.C,R18*%
X122280000Y-38173436D02*
X122280000Y-39627564D01*
X124100000Y-38173436D02*
X124100000Y-39627564D01*
%TO.C,R21*%
X158472936Y-126090000D02*
X159927064Y-126090000D01*
X158472936Y-127910000D02*
X159927064Y-127910000D01*
D15*
%TO.C,J10*%
X185560000Y-48222000D02*
X183410000Y-48222000D01*
X185560000Y-75222000D02*
X185560000Y-48222000D01*
X183410000Y-75222000D02*
X185560000Y-75222000D01*
X177660000Y-52222000D02*
G75*
G03*
X177660000Y-52222000I-100000J0D01*
G01*
D13*
%TO.C,J8*%
X171450000Y-91291200D02*
X179728594Y-91291200D01*
X182815405Y-91291200D02*
X185674000Y-91291200D01*
X185674000Y-76533800D02*
X182815405Y-76533800D01*
X171450000Y-76533800D02*
X171450000Y-91291200D01*
X185674000Y-91291200D02*
X185674000Y-76533800D01*
X179728594Y-76533800D02*
X171450000Y-76533800D01*
X178943000Y-93069200D02*
G75*
G03*
X178943000Y-93069200I-381000J0D01*
G01*
%TO.C,C18*%
X158953252Y-109326000D02*
X157530748Y-109326000D01*
X158953252Y-111146000D02*
X157530748Y-111146000D01*
%TO.C,D5*%
X113360000Y-27335000D02*
X113360000Y-25065000D01*
X109300000Y-27335000D02*
X113360000Y-27335000D01*
X113360000Y-25065000D02*
X109300000Y-25065000D01*
%TO.C,TP2*%
X152100000Y-63400000D02*
X147700000Y-63400000D01*
X152100000Y-59000000D02*
X152100000Y-63400000D01*
X147700000Y-63400000D02*
X147700000Y-59000000D01*
X147700000Y-59000000D02*
X152100000Y-59000000D01*
%TO.C,U4*%
X126746000Y-40460500D02*
X128546000Y-40460500D01*
X126746000Y-37340500D02*
X125946000Y-37340500D01*
X126746000Y-37340500D02*
X127546000Y-37340500D01*
X126746000Y-40460500D02*
X125946000Y-40460500D01*
D16*
%TO.C,U2*%
X45234000Y-32053000D02*
X45234000Y-32353000D01*
X45234000Y-34553000D02*
X45234000Y-35253000D01*
X44534000Y-31653000D02*
X44834000Y-31653000D01*
X41634000Y-35253000D02*
X41634000Y-34553000D01*
X44834000Y-31653000D02*
X45234000Y-32053000D01*
X42334000Y-31653000D02*
X41634000Y-31653000D01*
X42334000Y-35253000D02*
X41634000Y-35253000D01*
X45234000Y-35253000D02*
X44534000Y-35253000D01*
X41634000Y-31653000D02*
X41634000Y-32353000D01*
D17*
%TO.C,U9*%
X145100000Y-95410000D02*
X146700000Y-95410000D01*
X146700000Y-92290000D02*
X145100000Y-92290000D01*
D15*
X143500000Y-92900000D02*
G75*
G03*
X143500000Y-92900000I-100000J0D01*
G01*
D13*
%TO.C,C2*%
X37460748Y-39782000D02*
X38883252Y-39782000D01*
X37460748Y-41602000D02*
X38883252Y-41602000D01*
%TO.C,U5*%
X166612500Y-39160000D02*
X165812500Y-39160000D01*
X166612500Y-39160000D02*
X168412500Y-39160000D01*
X166612500Y-36040000D02*
X165812500Y-36040000D01*
X166612500Y-36040000D02*
X167412500Y-36040000D01*
%TO.C,C6*%
X39772000Y-35232748D02*
X39772000Y-36655252D01*
X37952000Y-35232748D02*
X37952000Y-36655252D01*
D17*
%TO.C,J3*%
X170243250Y-27610500D02*
X170243250Y-25350500D01*
X170243250Y-21430500D02*
X155243250Y-21430500D01*
X155243250Y-21430500D02*
X155243250Y-22830500D01*
X155243250Y-27610500D02*
X155243250Y-25350500D01*
X170243250Y-22930500D02*
X170243250Y-21430500D01*
D15*
X157943250Y-31380500D02*
G75*
G03*
X157943250Y-31380500I-100000J0D01*
G01*
D17*
%TO.C,J5*%
X130414000Y-34711000D02*
X135416000Y-34711000D01*
X122990000Y-20661000D02*
X136090000Y-20661000D01*
X123664000Y-34711000D02*
X124666000Y-34711000D01*
X122990000Y-29261000D02*
X122990000Y-31361000D01*
X122990000Y-23361000D02*
X122990000Y-26261000D01*
D15*
X127260000Y-20211000D02*
G75*
G03*
X127260000Y-20211000I-100000J0D01*
G01*
D13*
%TO.C,L1*%
X46193900Y-45994550D02*
X46445360Y-46246010D01*
X46445360Y-43037990D02*
X46193900Y-43289450D01*
X51098640Y-46246010D02*
X51350100Y-45994550D01*
X51350100Y-43289450D02*
X51098640Y-43037990D01*
X51350100Y-45994550D02*
X51350100Y-43289450D01*
X46193900Y-43289450D02*
X46193900Y-45994550D01*
%TO.C,C20*%
X150288748Y-36910000D02*
X151711252Y-36910000D01*
X150288748Y-35090000D02*
X151711252Y-35090000D01*
%TD*%
M02*
